Junction.ufo
<glyph name="exclam" format="1">
  <advance width="287"/>
  <unicode hex="0021"/>
  <outline>
    <contour>
      <point x="181" y="184" type="line"/>
      <point x="194" y="820" type="line"/>
      <point x="95" y="820" type="line"/>
      <point x="108" y="184" type="line"/>
    </contour>
    <contour>
      <point x="83" y="56" type="curve" smooth="yes"/>
      <point x="83" y="20"/>
      <point x="110" y="-7"/>
      <point x="146" y="-7" type="curve" smooth="yes"/>
      <point x="181" y="-7"/>
      <point x="207" y="20"/>
      <point x="207" y="56" type="curve" smooth="yes"/>
      <point x="207" y="91"/>
      <point x="181" y="117"/>
      <point x="146" y="117" type="curve" smooth="yes"/>
      <point x="110" y="117"/>
      <point x="83" y="91"/>
    </contour>
  </outline>
</glyph>
<glyph name="numbersign" format="1">
  <advance width="831"/>
  <unicode hex="0023"/>
  <outline>
    <contour>
      <point x="98" y="488" type="line"/>
      <point x="268" y="488" type="line"/>
      <point x="225" y="311" type="line"/>
      <point x="60" y="311" type="line"/>
      <point x="43" y="239" type="line"/>
      <point x="207" y="239" type="line"/>
      <point x="149" y="0" type="line"/>
      <point x="223" y="0" type="line"/>
      <point x="281" y="239" type="line"/>
      <point x="457" y="239" type="line"/>
      <point x="399" y="0" type="line"/>
      <point x="473" y="0" type="line"/>
      <point x="531" y="239" type="line"/>
      <point x="716" y="239" type="line"/>
      <point x="733" y="311" type="line"/>
      <point x="549" y="311" type="line"/>
      <point x="592" y="488" type="line"/>
      <point x="771" y="488" type="line"/>
      <point x="788" y="560" type="line"/>
      <point x="610" y="560" type="line"/>
      <point x="662" y="770" type="line"/>
      <point x="588" y="770" type="line"/>
      <point x="536" y="560" type="line"/>
      <point x="360" y="560" type="line"/>
      <point x="412" y="770" type="line"/>
      <point x="338" y="770" type="line"/>
      <point x="286" y="560" type="line"/>
      <point x="115" y="560" type="line"/>
    </contour>
    <contour>
      <point x="342" y="488" type="line"/>
      <point x="518" y="488" type="line"/>
      <point x="475" y="311" type="line"/>
      <point x="299" y="311" type="line"/>
    </contour>
  </outline>
</glyph>
<glyph name="dollar" format="1">
  <advance width="661"/>
  <unicode hex="0024"/>
  <outline>
    <contour>
      <point x="303" y="-67" type="line"/>
      <point x="371" y="-67" type="line"/>
      <point x="371" y="-16" type="line"/>
      <point x="489" y="-6"/>
      <point x="590" y="66"/>
      <point x="590" y="205" type="curve" smooth="yes"/>
      <point x="590" y="347"/>
      <point x="482" y="400"/>
      <point x="371" y="436" type="curve"/>
      <point x="371" y="702" type="line"/>
      <point x="418" y="694"/>
      <point x="450" y="671"/>
      <point x="481" y="639" type="curve"/>
      <point x="541" y="690" type="line"/>
      <point x="496" y="743"/>
      <point x="444" y="774"/>
      <point x="371" y="783" type="curve"/>
      <point x="371" y="842" type="line"/>
      <point x="303" y="842" type="line"/>
      <point x="303" y="785" type="line"/>
      <point x="227" y="778"/>
      <point x="106" y="738"/>
      <point x="104" y="573" type="curve" smooth="yes"/>
      <point x="102" y="445"/>
      <point x="196" y="400"/>
      <point x="303" y="365" type="curve"/>
      <point x="303" y="66" type="line"/>
      <point x="232" y="78"/>
      <point x="181" y="118"/>
      <point x="137" y="189" type="curve"/>
      <point x="75" y="134" type="line"/>
      <point x="132" y="43"/>
      <point x="203" y="-2"/>
      <point x="303" y="-14" type="curve"/>
    </contour>
    <contour>
      <point x="504" y="205" type="curve" smooth="yes"/>
      <point x="504" y="119"/>
      <point x="445" y="73"/>
      <point x="371" y="64" type="curve"/>
      <point x="371" y="344" type="line"/>
      <point x="444" y="318"/>
      <point x="504" y="284"/>
    </contour>
    <contour>
      <point x="190" y="573" type="curve" smooth="yes"/>
      <point x="194" y="670"/>
      <point x="256" y="698"/>
      <point x="303" y="704" type="curve"/>
      <point x="303" y="458" type="line"/>
      <point x="238" y="481"/>
      <point x="187" y="512"/>
    </contour>
  </outline>
</glyph>
<glyph name="percent" format="1">
  <advance width="1015"/>
  <unicode hex="0025"/>
  <outline>
    <contour>
      <point x="63" y="570" type="curve"/>
      <point x="63" y="407"/>
      <point x="166" y="360"/>
      <point x="253" y="360" type="curve" smooth="yes"/>
      <point x="340" y="360"/>
      <point x="441" y="406"/>
      <point x="442" y="568" type="curve"/>
      <point x="442" y="733"/>
      <point x="341" y="779"/>
      <point x="252" y="779" type="curve"/>
      <point x="165" y="778"/>
      <point x="64" y="732"/>
    </contour>
    <contour>
      <point x="744" y="814" type="line"/>
      <point x="164" y="-47" type="line"/>
      <point x="260" y="-47" type="line"/>
      <point x="840" y="814" type="line"/>
    </contour>
    <contour>
      <point x="252" y="713" type="curve"/>
      <point x="306" y="713"/>
      <point x="357" y="690"/>
      <point x="357" y="568" type="curve"/>
      <point x="356" y="449"/>
      <point x="306" y="426"/>
      <point x="253" y="426" type="curve" smooth="yes"/>
      <point x="200" y="426"/>
      <point x="148" y="450"/>
      <point x="148" y="570" type="curve" smooth="yes"/>
      <point x="148" y="689"/>
      <point x="199" y="712"/>
    </contour>
    <contour>
      <point x="567" y="195" type="curve"/>
      <point x="567" y="32"/>
      <point x="670" y="-15"/>
      <point x="757" y="-15" type="curve" smooth="yes"/>
      <point x="844" y="-15"/>
      <point x="945" y="31"/>
      <point x="946" y="193" type="curve"/>
      <point x="946" y="358"/>
      <point x="845" y="404"/>
      <point x="756" y="404" type="curve"/>
      <point x="669" y="403"/>
      <point x="568" y="357"/>
    </contour>
    <contour>
      <point x="756" y="338" type="curve"/>
      <point x="810" y="338"/>
      <point x="861" y="315"/>
      <point x="861" y="193" type="curve"/>
      <point x="860" y="74"/>
      <point x="810" y="51"/>
      <point x="757" y="51" type="curve" smooth="yes"/>
      <point x="704" y="51"/>
      <point x="652" y="75"/>
      <point x="652" y="195" type="curve" smooth="yes"/>
      <point x="652" y="314"/>
      <point x="703" y="337"/>
    </contour>
  </outline>
</glyph>
<glyph name="ampersand" format="1">
  <advance width="886"/>
  <unicode hex="0026"/>
  <outline>
    <contour>
      <point x="63" y="200" type="curve" smooth="yes"/>
      <point x="63" y="49"/>
      <point x="211" y="-7"/>
      <point x="314" y="-7" type="curve" smooth="yes"/>
      <point x="427" y="-7"/>
      <point x="500" y="34"/>
      <point x="554" y="96" type="curve"/>
      <point x="620" y="35"/>
      <point x="677" y="-1"/>
      <point x="703" y="-5" type="curve" smooth="yes"/>
      <point x="739" y="-11"/>
      <point x="788" y="-9"/>
      <point x="834" y="96" type="curve"/>
      <point x="774" y="131" type="line"/>
      <point x="749" y="74"/>
      <point x="725" y="68"/>
      <point x="703" y="75" type="curve" smooth="yes"/>
      <point x="693" y="78"/>
      <point x="652" y="109"/>
      <point x="600" y="160" type="curve"/>
      <point x="635" y="217"/>
      <point x="665" y="283"/>
      <point x="698" y="349" type="curve"/>
      <point x="633" y="381" type="line"/>
      <point x="603" y="321"/>
      <point x="580" y="267"/>
      <point x="547" y="215" type="curve"/>
      <point x="483" y="281"/>
      <point x="413" y="357"/>
      <point x="363" y="412" type="curve"/>
      <point x="465" y="464"/>
      <point x="557" y="519"/>
      <point x="557" y="606" type="curve" smooth="yes"/>
      <point x="557" y="731"/>
      <point x="449" y="770"/>
      <point x="349" y="770" type="curve" smooth="yes"/>
      <point x="249" y="770"/>
      <point x="137" y="731"/>
      <point x="137" y="606" type="curve" smooth="yes"/>
      <point x="137" y="546"/>
      <point x="179" y="489"/>
      <point x="240" y="422" type="curve"/>
      <point x="145" y="369"/>
      <point x="63" y="306"/>
    </contour>
    <contour>
      <point x="287" y="373" type="curve"/>
      <point x="344" y="312"/>
      <point x="423" y="226"/>
      <point x="498" y="151" type="curve"/>
      <point x="454" y="107"/>
      <point x="397" y="75"/>
      <point x="314" y="74" type="curve" smooth="yes"/>
      <point x="268" y="74"/>
      <point x="147" y="111"/>
      <point x="147" y="200" type="curve" smooth="yes"/>
      <point x="147" y="280"/>
      <point x="211" y="331"/>
    </contour>
    <contour>
      <point x="473" y="606" type="curve" smooth="yes"/>
      <point x="473" y="546"/>
      <point x="397" y="503"/>
      <point x="316" y="462" type="curve"/>
      <point x="260" y="521"/>
      <point x="221" y="570"/>
      <point x="221" y="606" type="curve" smooth="yes"/>
      <point x="221" y="685"/>
      <point x="289" y="708"/>
      <point x="349" y="708" type="curve" smooth="yes"/>
      <point x="409" y="708"/>
      <point x="473" y="685"/>
    </contour>
  </outline>
</glyph>
<glyph name="quotesingle" format="1">
  <advance width="213"/>
  <unicode hex="0027"/>
  <outline>
    <contour>
      <point x="49" y="715" type="curve" smooth="yes"/>
      <point x="49" y="683"/>
      <point x="73" y="659"/>
      <point x="109" y="659" type="curve"/>
      <point x="102" y="615"/>
      <point x="80" y="579"/>
      <point x="51" y="543" type="curve"/>
      <point x="97" y="518" type="line"/>
      <point x="139" y="570"/>
      <point x="165" y="633"/>
      <point x="166" y="688" type="curve" smooth="yes"/>
      <point x="166" y="734"/>
      <point x="148" y="770"/>
      <point x="105" y="770" type="curve" smooth="yes"/>
      <point x="73" y="770"/>
      <point x="49" y="747"/>
    </contour>
  </outline>
</glyph>
<glyph name="parenleft" format="1">
  <advance width="344"/>
  <unicode hex="0028"/>
  <outline>
    <contour>
      <point x="305" y="770" type="line"/>
      <point x="114" y="754"/>
      <point x="63" y="398"/>
      <point x="63" y="254" type="curve" smooth="yes"/>
      <point x="63" y="109"/>
      <point x="113" y="-241"/>
      <point x="305" y="-261" type="curve"/>
      <point x="311" y="-191" type="line"/>
      <point x="178" y="-145"/>
      <point x="147" y="130"/>
      <point x="147" y="254" type="curve" smooth="yes"/>
      <point x="147" y="379"/>
      <point x="178" y="653"/>
      <point x="311" y="700" type="curve"/>
    </contour>
  </outline>
</glyph>
<glyph name="parenright" format="1">
  <advance width="344"/>
  <unicode hex="0029"/>
  <outline>
    <contour>
      <point x="33" y="700" type="line"/>
      <point x="166" y="653"/>
      <point x="197" y="379"/>
      <point x="197" y="254" type="curve" smooth="yes"/>
      <point x="197" y="130"/>
      <point x="166" y="-145"/>
      <point x="33" y="-191" type="curve"/>
      <point x="39" y="-261" type="line"/>
      <point x="231" y="-241"/>
      <point x="281" y="109"/>
      <point x="281" y="254" type="curve" smooth="yes"/>
      <point x="281" y="398"/>
      <point x="230" y="754"/>
      <point x="39" y="770" type="curve"/>
    </contour>
  </outline>
</glyph>
<glyph name="asterisk" format="1">
  <advance width="624"/>
  <unicode hex="002A"/>
  <outline>
    <contour>
      <point x="52" y="567" type="line"/>
      <point x="258" y="486" type="line"/>
      <point x="114" y="326" type="line"/>
      <point x="174" y="277" type="line"/>
      <point x="312" y="449" type="line"/>
      <point x="451" y="277" type="line"/>
      <point x="509" y="326" type="line"/>
      <point x="365" y="486" type="line"/>
      <point x="572" y="567" type="line"/>
      <point x="547" y="632" type="line"/>
      <point x="345" y="551" type="line"/>
      <point x="347" y="770" type="line"/>
      <point x="277" y="770" type="line"/>
      <point x="279" y="551" type="line"/>
      <point x="77" y="632" type="line"/>
    </contour>
  </outline>
</glyph>
<glyph name="plus" format="1">
  <advance width="656"/>
  <unicode hex="002B"/>
  <outline>
    <contour>
      <point x="356" y="0" type="line"/>
      <point x="356" y="242" type="line"/>
      <point x="603" y="242" type="line"/>
      <point x="603" y="309" type="line"/>
      <point x="356" y="309" type="line"/>
      <point x="356" y="550" type="line"/>
      <point x="289" y="550" type="line"/>
      <point x="289" y="309" type="line"/>
      <point x="53" y="309" type="line"/>
      <point x="53" y="242" type="line"/>
      <point x="289" y="242" type="line"/>
      <point x="289" y="0" type="line"/>
    </contour>
  </outline>
</glyph>
<glyph name="comma" format="1">
  <advance width="208"/>
  <unicode hex="002C"/>
  <outline>
    <contour>
      <point x="43" y="49" type="curve" smooth="yes"/>
      <point x="43" y="17"/>
      <point x="67" y="-7"/>
      <point x="103" y="-7" type="curve"/>
      <point x="96" y="-51"/>
      <point x="74" y="-87"/>
      <point x="45" y="-123" type="curve"/>
      <point x="91" y="-148" type="line"/>
      <point x="133" y="-96"/>
      <point x="159" y="-33"/>
      <point x="160" y="22" type="curve"/>
      <point x="160" y="68"/>
      <point x="142" y="104"/>
      <point x="99" y="104" type="curve" smooth="yes"/>
      <point x="67" y="104"/>
      <point x="43" y="81"/>
    </contour>
  </outline>
</glyph>
<glyph name="hyphen" format="1">
  <advance width="352"/>
  <unicode hex="002D"/>
  <outline>
    <contour>
      <point x="294" y="310" type="line"/>
      <point x="58" y="310" type="line"/>
      <point x="58" y="240" type="line"/>
      <point x="294" y="240" type="line"/>
    </contour>
  </outline>
</glyph>
<glyph name="period" format="1">
  <advance width="199"/>
  <unicode hex="002E"/>
  <outline>
    <contour>
      <point x="41" y="53" type="curve" smooth="yes"/>
      <point x="41" y="18"/>
      <point x="66" y="-7"/>
      <point x="101" y="-7" type="curve" smooth="yes"/>
      <point x="134" y="-7"/>
      <point x="158" y="18"/>
      <point x="158" y="53" type="curve" smooth="yes"/>
      <point x="158" y="86"/>
      <point x="134" y="110"/>
      <point x="101" y="110" type="curve" smooth="yes"/>
      <point x="66" y="110"/>
      <point x="41" y="86"/>
    </contour>
  </outline>
</glyph>
<glyph name="slash" format="1">
  <advance width="438"/>
  <unicode hex="002F"/>
  <outline>
    <contour>
      <point x="332" y="770" type="line"/>
      <point x="101" y="0" type="line"/>
      <point x="184" y="0" type="line"/>
      <point x="415" y="770" type="line"/>
    </contour>
  </outline>
</glyph>
<glyph name="zero" format="1">
  <advance width="659"/>
  <unicode hex="0030"/>
  <outline>
    <contour>
      <point x="50" y="375" type="curve" smooth="yes"/>
      <point x="50" y="78"/>
      <point x="186" y="-15"/>
      <point x="331" y="-15" type="curve" smooth="yes"/>
      <point x="476" y="-15"/>
      <point x="609" y="78"/>
      <point x="609" y="375" type="curve" smooth="yes"/>
      <point x="609" y="672"/>
      <point x="476" y="765"/>
      <point x="331" y="765" type="curve" smooth="yes"/>
      <point x="186" y="765"/>
      <point x="50" y="672"/>
    </contour>
    <contour>
      <point x="521" y="375" type="curve" smooth="yes"/>
      <point x="521" y="152"/>
      <point x="433" y="66"/>
      <point x="331" y="66" type="curve" smooth="yes"/>
      <point x="230" y="66"/>
      <point x="138" y="152"/>
      <point x="138" y="375" type="curve" smooth="yes"/>
      <point x="138" y="599"/>
      <point x="224" y="688"/>
      <point x="331" y="688" type="curve" smooth="yes"/>
      <point x="440" y="688"/>
      <point x="521" y="599"/>
    </contour>
  </outline>
</glyph>
<glyph name="one" format="1">
  <advance width="357"/>
  <unicode hex="0031"/>
  <outline>
    <contour>
      <point x="282" y="0" type="line"/>
      <point x="282" y="750" type="line"/>
      <point x="193" y="750" type="line"/>
      <point x="50" y="642" type="line"/>
      <point x="104" y="580" type="line"/>
      <point x="193" y="655" type="line"/>
      <point x="193" y="0" type="line"/>
    </contour>
  </outline>
</glyph>
<glyph name="two" format="1">
  <advance width="560"/>
  <unicode hex="0032"/>
  <outline>
    <contour>
      <point x="122" y="589" type="curve"/>
      <point x="122" y="589"/>
      <point x="170" y="687"/>
      <point x="267" y="688" type="curve" smooth="yes"/>
      <point x="326" y="689"/>
      <point x="388" y="651"/>
      <point x="388" y="577" type="curve" smooth="yes"/>
      <point x="388" y="437"/>
      <point x="57" y="64"/>
      <point x="57" y="64" type="curve"/>
      <point x="57" y="0" type="line"/>
      <point x="490" y="0" type="line"/>
      <point x="490" y="76" type="line"/>
      <point x="173" y="76" type="line"/>
      <point x="285" y="217"/>
      <point x="471" y="458"/>
      <point x="471" y="579" type="curve" smooth="yes"/>
      <point x="471" y="697"/>
      <point x="383" y="765"/>
      <point x="268" y="765" type="curve"/>
      <point x="158" y="764"/>
      <point x="97" y="692"/>
      <point x="68" y="644" type="curve"/>
      <point x="68" y="643"/>
      <point x="122" y="589"/>
    </contour>
  </outline>
</glyph>
<glyph name="three" format="1">
  <advance width="550"/>
  <unicode hex="0033"/>
  <outline>
    <contour>
      <point x="108" y="617" type="line"/>
      <point x="108" y="617"/>
      <point x="145" y="686"/>
      <point x="237" y="686" type="curve" smooth="yes"/>
      <point x="281" y="686"/>
      <point x="322" y="656"/>
      <point x="322" y="608" type="curve" smooth="yes"/>
      <point x="322" y="525"/>
      <point x="240" y="476"/>
      <point x="147" y="441" type="curve"/>
      <point x="147" y="373" type="line"/>
      <point x="148" y="372"/>
      <point x="217" y="398"/>
      <point x="288" y="398" type="curve" smooth="yes"/>
      <point x="353" y="398"/>
      <point x="409" y="339"/>
      <point x="409" y="277" type="curve" smooth="yes"/>
      <point x="409" y="130"/>
      <point x="287" y="65"/>
      <point x="205" y="65" type="curve"/>
      <point x="131" y="62"/>
      <point x="93" y="96"/>
      <point x="93" y="96" type="curve"/>
      <point x="40" y="46" type="line"/>
      <point x="40" y="46"/>
      <point x="110" y="-16"/>
      <point x="205" y="-15" type="curve"/>
      <point x="323" y="-15"/>
      <point x="491" y="76"/>
      <point x="491" y="277" type="curve"/>
      <point x="488" y="378"/>
      <point x="409" y="453"/>
      <point x="316" y="465" type="curve"/>
      <point x="360" y="500"/>
      <point x="404" y="546"/>
      <point x="404" y="608" type="curve" smooth="yes"/>
      <point x="404" y="700"/>
      <point x="326" y="765"/>
      <point x="236" y="765" type="curve" smooth="yes"/>
      <point x="114" y="765"/>
      <point x="61" y="663"/>
      <point x="61" y="663" type="curve"/>
    </contour>
  </outline>
</glyph>
<glyph name="four" format="1">
  <advance width="644"/>
  <unicode hex="0034"/>
  <outline>
    <contour>
      <point x="597" y="260" type="line"/>
      <point x="492" y="260" type="line"/>
      <point x="492" y="750" type="line"/>
      <point x="431" y="750" type="line"/>
      <point x="39" y="231" type="line"/>
      <point x="39" y="184" type="line"/>
      <point x="403" y="184" type="line"/>
      <point x="403" y="0" type="line"/>
      <point x="492" y="0" type="line"/>
      <point x="492" y="184" type="line"/>
      <point x="597" y="184" type="line"/>
    </contour>
    <contour>
      <point x="168" y="260" type="line"/>
      <point x="149" y="256" type="line"/>
      <point x="149" y="257" type="line"/>
      <point x="163" y="271" type="line"/>
      <point x="403" y="596" type="line"/>
      <point x="403" y="260" type="line"/>
    </contour>
  </outline>
</glyph>
<glyph name="five" format="1">
  <advance width="586"/>
  <unicode hex="0035"/>
  <outline>
    <contour>
      <point x="167" y="675" type="line"/>
      <point x="465" y="675" type="line"/>
      <point x="465" y="750" type="line"/>
      <point x="79" y="750" type="line"/>
      <point x="79" y="396" type="line"/>
      <point x="145" y="396" type="line"/>
      <point x="188" y="425"/>
      <point x="233" y="432"/>
      <point x="278" y="432" type="curve" smooth="yes"/>
      <point x="389" y="432"/>
      <point x="441" y="347"/>
      <point x="441" y="278" type="curve" smooth="yes"/>
      <point x="441" y="123"/>
      <point x="363" y="59"/>
      <point x="267" y="59" type="curve" smooth="yes"/>
      <point x="178" y="59"/>
      <point x="106" y="130"/>
      <point x="106" y="130" type="curve"/>
      <point x="58" y="71" type="line"/>
      <point x="58" y="71"/>
      <point x="136" y="-15"/>
      <point x="267" y="-15" type="curve" smooth="yes"/>
      <point x="414" y="-15"/>
      <point x="522" y="70"/>
      <point x="522" y="280" type="curve"/>
      <point x="522" y="409"/>
      <point x="438" y="505"/>
      <point x="278" y="505" type="curve" smooth="yes"/>
      <point x="227" y="505"/>
      <point x="196" y="492"/>
      <point x="167" y="479" type="curve"/>
    </contour>
  </outline>
</glyph>
<glyph name="six" format="1">
  <advance width="611"/>
  <unicode hex="0036"/>
  <outline>
    <contour>
      <point x="342" y="461" type="curve" smooth="yes"/>
      <point x="282" y="461"/>
      <point x="210" y="433"/>
      <point x="144" y="331" type="curve"/>
      <point x="147" y="464"/>
      <point x="198" y="686"/>
      <point x="352" y="686" type="curve" smooth="yes"/>
      <point x="419" y="686"/>
      <point x="467" y="645"/>
      <point x="467" y="645" type="curve"/>
      <point x="520" y="700" type="line"/>
      <point x="505" y="711"/>
      <point x="435" y="765"/>
      <point x="348" y="765" type="curve" smooth="yes"/>
      <point x="184" y="765"/>
      <point x="65" y="570"/>
      <point x="65" y="344" type="curve" smooth="yes"/>
      <point x="65" y="114"/>
      <point x="157" y="-15"/>
      <point x="318" y="-15" type="curve" smooth="yes"/>
      <point x="495" y="-15"/>
      <point x="551" y="144"/>
      <point x="551" y="237" type="curve" smooth="yes"/>
      <point x="551" y="403"/>
      <point x="454" y="461"/>
    </contour>
    <contour>
      <point x="318" y="58" type="curve" smooth="yes"/>
      <point x="234" y="58"/>
      <point x="176" y="118"/>
      <point x="155" y="225" type="curve"/>
      <point x="215" y="353"/>
      <point x="286" y="387"/>
      <point x="342" y="387" type="curve" smooth="yes"/>
      <point x="409" y="387"/>
      <point x="468" y="350"/>
      <point x="468" y="237" type="curve" smooth="yes"/>
      <point x="468" y="172"/>
      <point x="432" y="58"/>
    </contour>
  </outline>
</glyph>
<glyph name="seven" format="1">
  <advance width="506"/>
  <unicode hex="0037"/>
  <outline>
    <contour>
      <point x="51" y="667" type="line"/>
      <point x="381" y="667" type="line"/>
      <point x="285" y="470"/>
      <point x="72" y="85"/>
      <point x="10" y="47" type="curve"/>
      <point x="67" y="-6" type="line"/>
      <point x="150" y="30"/>
      <point x="403" y="522"/>
      <point x="483" y="691" type="curve"/>
      <point x="483" y="750" type="line"/>
      <point x="51" y="750" type="line"/>
    </contour>
  </outline>
</glyph>
<glyph name="eight" format="1">
  <advance width="584"/>
  <unicode hex="0038"/>
  <outline>
    <contour>
      <point x="500" y="601" type="curve" smooth="yes"/>
      <point x="500" y="725"/>
      <point x="389" y="765"/>
      <point x="291" y="765" type="curve" smooth="yes"/>
      <point x="193" y="765"/>
      <point x="84" y="725"/>
      <point x="84" y="601" type="curve" smooth="yes"/>
      <point x="84" y="517"/>
      <point x="144" y="448"/>
      <point x="218" y="389" type="curve"/>
      <point x="153" y="349"/>
      <point x="66" y="267"/>
      <point x="65" y="164" type="curve"/>
      <point x="65" y="-21"/>
      <point x="279" y="-15"/>
      <point x="291" y="-15" type="curve" smooth="yes"/>
      <point x="304" y="-15"/>
      <point x="519" y="-24"/>
      <point x="519" y="164" type="curve" smooth="yes"/>
      <point x="519" y="256"/>
      <point x="435" y="326"/>
      <point x="347" y="388" type="curve"/>
      <point x="403" y="422"/>
      <point x="500" y="498"/>
    </contour>
    <contour>
      <point x="436" y="164" type="curve" smooth="yes"/>
      <point x="436" y="50"/>
      <point x="300" y="55"/>
      <point x="291" y="55" type="curve" smooth="yes"/>
      <point x="283" y="55"/>
      <point x="146" y="51"/>
      <point x="146" y="164" type="curve"/>
      <point x="152" y="251"/>
      <point x="218" y="315"/>
      <point x="273" y="350" type="curve"/>
      <point x="359" y="287"/>
      <point x="436" y="224"/>
    </contour>
    <contour>
      <point x="288" y="431" type="curve"/>
      <point x="224" y="483"/>
      <point x="166" y="537"/>
      <point x="166" y="601" type="curve" smooth="yes"/>
      <point x="166" y="679"/>
      <point x="232" y="700"/>
      <point x="291" y="700" type="curve" smooth="yes"/>
      <point x="351" y="700"/>
      <point x="416" y="679"/>
      <point x="416" y="601" type="curve" smooth="yes"/>
      <point x="416" y="512"/>
      <point x="326" y="451"/>
    </contour>
  </outline>
</glyph>
<glyph name="nine" format="1">
  <advance width="610"/>
  <unicode hex="0039"/>
  <outline>
    <contour>
      <point x="268" y="289" type="curve" smooth="yes"/>
      <point x="328" y="289"/>
      <point x="400" y="317"/>
      <point x="466" y="419" type="curve"/>
      <point x="463" y="286"/>
      <point x="412" y="64"/>
      <point x="258" y="64" type="curve" smooth="yes"/>
      <point x="191" y="64"/>
      <point x="143" y="105"/>
      <point x="143" y="105" type="curve"/>
      <point x="90" y="50" type="line"/>
      <point x="105" y="39"/>
      <point x="175" y="-15"/>
      <point x="262" y="-15" type="curve" smooth="yes"/>
      <point x="426" y="-15"/>
      <point x="545" y="180"/>
      <point x="545" y="406" type="curve" smooth="yes"/>
      <point x="545" y="636"/>
      <point x="453" y="765"/>
      <point x="292" y="765" type="curve" smooth="yes"/>
      <point x="115" y="765"/>
      <point x="59" y="606"/>
      <point x="59" y="513" type="curve" smooth="yes"/>
      <point x="59" y="347"/>
      <point x="156" y="289"/>
    </contour>
    <contour>
      <point x="292" y="692" type="curve" smooth="yes"/>
      <point x="376" y="692"/>
      <point x="434" y="632"/>
      <point x="455" y="525" type="curve"/>
      <point x="395" y="397"/>
      <point x="324" y="363"/>
      <point x="268" y="363" type="curve" smooth="yes"/>
      <point x="201" y="363"/>
      <point x="142" y="400"/>
      <point x="142" y="513" type="curve" smooth="yes"/>
      <point x="142" y="578"/>
      <point x="178" y="692"/>
    </contour>
  </outline>
</glyph>
<glyph name="colon" format="1">
  <advance width="245"/>
  <unicode hex="003A"/>
  <outline>
    <contour>
      <point x="64" y="53" type="curve" smooth="yes"/>
      <point x="64" y="18"/>
      <point x="89" y="-7"/>
      <point x="124" y="-7" type="curve" smooth="yes"/>
      <point x="157" y="-7"/>
      <point x="181" y="18"/>
      <point x="181" y="53" type="curve" smooth="yes"/>
      <point x="181" y="86"/>
      <point x="157" y="110"/>
      <point x="124" y="110" type="curve" smooth="yes"/>
      <point x="89" y="110"/>
      <point x="64" y="86"/>
    </contour>
    <contour>
      <point x="64" y="413" type="curve" smooth="yes"/>
      <point x="64" y="378"/>
      <point x="89" y="353"/>
      <point x="124" y="353" type="curve" smooth="yes"/>
      <point x="157" y="353"/>
      <point x="181" y="378"/>
      <point x="181" y="413" type="curve" smooth="yes"/>
      <point x="181" y="446"/>
      <point x="157" y="470"/>
      <point x="124" y="470" type="curve" smooth="yes"/>
      <point x="89" y="470"/>
      <point x="64" y="446"/>
    </contour>
  </outline>
</glyph>
<glyph name="semicolon" format="1">
  <advance width="250"/>
  <unicode hex="003B"/>
  <outline>
    <contour>
      <point x="69" y="49" type="curve" smooth="yes"/>
      <point x="69" y="17"/>
      <point x="93" y="-7"/>
      <point x="129" y="-7" type="curve"/>
      <point x="122" y="-51"/>
      <point x="100" y="-87"/>
      <point x="71" y="-123" type="curve"/>
      <point x="117" y="-148" type="line"/>
      <point x="159" y="-96"/>
      <point x="185" y="-33"/>
      <point x="186" y="22" type="curve" smooth="yes"/>
      <point x="186" y="68"/>
      <point x="168" y="104"/>
      <point x="125" y="104" type="curve" smooth="yes"/>
      <point x="93" y="104"/>
      <point x="69" y="81"/>
    </contour>
    <contour>
      <point x="64" y="413" type="curve" smooth="yes"/>
      <point x="64" y="378"/>
      <point x="89" y="353"/>
      <point x="124" y="353" type="curve" smooth="yes"/>
      <point x="157" y="353"/>
      <point x="181" y="378"/>
      <point x="181" y="413" type="curve" smooth="yes"/>
      <point x="181" y="446"/>
      <point x="157" y="470"/>
      <point x="124" y="470" type="curve" smooth="yes"/>
      <point x="89" y="470"/>
      <point x="64" y="446"/>
    </contour>
  </outline>
</glyph>
<glyph name="less" format="1">
  <advance width="706"/>
  <unicode hex="003C"/>
  <outline>
    <contour>
      <point x="78" y="244" type="line"/>
      <point x="633" y="-7" type="line"/>
      <point x="633" y="65" type="line"/>
      <point x="157" y="280" type="line"/>
      <point x="633" y="495" type="line"/>
      <point x="633" y="567" type="line"/>
      <point x="78" y="316" type="line"/>
    </contour>
  </outline>
</glyph>
<glyph name="equal" format="1">
  <advance width="687"/>
  <unicode hex="003D"/>
  <outline>
    <contour>
      <point x="619" y="395" type="line"/>
      <point x="68" y="395" type="line"/>
      <point x="68" y="328" type="line"/>
      <point x="619" y="328" type="line"/>
    </contour>
    <contour>
      <point x="619" y="235" type="line"/>
      <point x="68" y="235" type="line"/>
      <point x="68" y="168" type="line"/>
      <point x="619" y="168" type="line"/>
    </contour>
  </outline>
</glyph>
<glyph name="greater" format="1">
  <advance width="706"/>
  <unicode hex="003E"/>
  <outline>
    <contour>
      <point x="628" y="316" type="line"/>
      <point x="73" y="567" type="line"/>
      <point x="73" y="495" type="line"/>
      <point x="548" y="280" type="line"/>
      <point x="73" y="65" type="line"/>
      <point x="73" y="-7" type="line"/>
      <point x="628" y="244" type="line"/>
    </contour>
  </outline>
</glyph>
<glyph name="question" format="1">
  <advance width="510"/>
  <unicode hex="003F"/>
  <outline>
    <contour>
      <point x="387" y="640" type="curve"/>
      <point x="384" y="570"/>
      <point x="322" y="509"/>
      <point x="265" y="457" type="curve" smooth="yes"/>
      <point x="206" y="404"/>
      <point x="161" y="358"/>
      <point x="161" y="294" type="curve" smooth="yes"/>
      <point x="161" y="232"/>
      <point x="191" y="203"/>
      <point x="233" y="165" type="curve"/>
      <point x="291" y="213" type="line"/>
      <point x="257" y="243"/>
      <point x="238" y="261"/>
      <point x="238" y="293" type="curve" smooth="yes"/>
      <point x="238" y="321"/>
      <point x="274" y="357"/>
      <point x="318" y="397" type="curve" smooth="yes"/>
      <point x="389" y="461"/>
      <point x="471" y="532"/>
      <point x="471" y="640" type="curve" smooth="yes"/>
      <point x="471" y="706"/>
      <point x="442" y="820"/>
      <point x="263" y="820" type="curve" smooth="yes"/>
      <point x="123" y="820"/>
      <point x="44" y="680"/>
      <point x="44" y="680" type="curve"/>
      <point x="97" y="630" type="line"/>
      <point x="97" y="630"/>
      <point x="160" y="750"/>
      <point x="263" y="750" type="curve" smooth="yes"/>
      <point x="376" y="750"/>
      <point x="387" y="680"/>
    </contour>
    <contour>
      <point x="198" y="49" type="curve" smooth="yes"/>
      <point x="198" y="17"/>
      <point x="222" y="-7"/>
      <point x="254" y="-7" type="curve" smooth="yes"/>
      <point x="286" y="-7"/>
      <point x="309" y="17"/>
      <point x="309" y="49" type="curve" smooth="yes"/>
      <point x="309" y="81"/>
      <point x="286" y="104"/>
      <point x="254" y="104" type="curve" smooth="yes"/>
      <point x="222" y="104"/>
      <point x="198" y="81"/>
    </contour>
  </outline>
</glyph>
<glyph name="at" format="1">
  <advance width="1078"/>
  <unicode hex="0040"/>
  <outline>
    <contour>
      <point x="429" y="19" type="curve" smooth="yes"/>
      <point x="508" y="18"/>
      <point x="578" y="62"/>
      <point x="630" y="108" type="curve"/>
      <point x="619" y="56"/>
      <point x="633" y="19"/>
      <point x="692" y="19" type="curve" smooth="yes"/>
      <point x="767" y="19"/>
      <point x="1015" y="76"/>
      <point x="1015" y="348" type="curve" smooth="yes"/>
      <point x="1015" y="552"/>
      <point x="853" y="770"/>
      <point x="562" y="770" type="curve" smooth="yes"/>
      <point x="297" y="770"/>
      <point x="63" y="525"/>
      <point x="63" y="261" type="curve" smooth="yes"/>
      <point x="63" y="-3"/>
      <point x="297" y="-197"/>
      <point x="562" y="-197" type="curve" smooth="yes"/>
      <point x="683" y="-197"/>
      <point x="772" y="-185"/>
      <point x="936" y="-50" type="curve"/>
      <point x="886" y="12" type="line"/>
      <point x="742" y="-107"/>
      <point x="665" y="-117"/>
      <point x="562" y="-117" type="curve" smooth="yes"/>
      <point x="341" y="-117"/>
      <point x="143" y="41"/>
      <point x="143" y="261" type="curve" smooth="yes"/>
      <point x="143" y="481"/>
      <point x="341" y="690"/>
      <point x="562" y="690" type="curve" smooth="yes"/>
      <point x="801" y="690"/>
      <point x="935" y="510"/>
      <point x="935" y="348" type="curve"/>
      <point x="945" y="120"/>
      <point x="714" y="73"/>
      <point x="705" y="82" type="curve"/>
      <point x="705" y="87"/>
      <point x="807" y="540"/>
      <point x="807" y="540" type="curve"/>
      <point x="729" y="558" type="line"/>
      <point x="729" y="558"/>
      <point x="723" y="535"/>
      <point x="715" y="499" type="curve"/>
      <point x="671" y="567"/>
      <point x="620" y="579"/>
      <point x="570" y="579" type="curve" smooth="yes"/>
      <point x="459" y="579"/>
      <point x="294" y="426"/>
      <point x="294" y="206" type="curve" smooth="yes"/>
      <point x="294" y="95"/>
      <point x="333" y="20"/>
    </contour>
    <contour>
      <point x="374" y="206" type="curve" smooth="yes"/>
      <point x="374" y="390"/>
      <point x="491" y="514"/>
      <point x="570" y="514" type="curve" smooth="yes"/>
      <point x="612" y="514"/>
      <point x="655" y="504"/>
      <point x="695" y="407" type="curve"/>
      <point x="658" y="239" type="line"/>
      <point x="639" y="212"/>
      <point x="540" y="83"/>
      <point x="430" y="85" type="curve"/>
      <point x="390" y="87"/>
      <point x="374" y="130"/>
    </contour>
  </outline>
</glyph>
<glyph name="A" format="1">
  <advance width="700"/>
  <unicode hex="0041"/>
  <outline>
    <contour>
      <point x="304" y="770" type="line"/>
      <point x="20" y="0" type="line"/>
      <point x="113" y="0" type="line"/>
      <point x="209" y="262" type="line"/>
      <point x="490" y="262" type="line"/>
      <point x="587" y="0" type="line"/>
      <point x="680" y="0" type="line"/>
      <point x="396" y="770" type="line"/>
    </contour>
    <contour>
      <point x="350" y="672" type="curve"/>
      <point x="350" y="647"/>
      <point x="356" y="624"/>
      <point x="356" y="624" type="curve"/>
      <point x="462" y="338" type="line"/>
      <point x="237" y="338" type="line"/>
      <point x="343" y="624" type="line"/>
      <point x="346" y="635"/>
      <point x="349" y="653"/>
    </contour>
  </outline>
</glyph>
<glyph name="B" format="1">
  <advance width="616"/>
  <unicode hex="0042"/>
  <outline>
    <contour>
      <point x="273" y="775" type="curve" smooth="yes"/>
      <point x="182" y="775"/>
      <point x="108" y="762"/>
      <point x="58" y="757" type="curve"/>
      <point x="58" y="0" type="line"/>
      <point x="146" y="0" type="line"/>
      <point x="223" y="0"/>
      <point x="245" y="0"/>
      <point x="286" y="0" type="curve" smooth="yes"/>
      <point x="550" y="-3"/>
      <point x="550" y="167"/>
      <point x="550" y="227" type="curve" smooth="yes"/>
      <point x="550" y="273"/>
      <point x="532" y="359"/>
      <point x="438" y="400" type="curve"/>
      <point x="483" y="429"/>
      <point x="515" y="477"/>
      <point x="516" y="558" type="curve"/>
      <point x="508" y="726"/>
      <point x="414" y="775"/>
    </contour>
    <contour>
      <point x="146" y="351" type="line"/>
      <point x="192" y="351"/>
      <point x="225" y="351"/>
      <point x="299" y="351" type="curve"/>
      <point x="446" y="351"/>
      <point x="464" y="260"/>
      <point x="464" y="227" type="curve" smooth="yes"/>
      <point x="464" y="173"/>
      <point x="461" y="76"/>
      <point x="286" y="76" type="curve" smooth="yes"/>
      <point x="223" y="76"/>
      <point x="209" y="76"/>
      <point x="146" y="76" type="curve"/>
    </contour>
    <contour>
      <point x="431" y="560" type="curve"/>
      <point x="423" y="412"/>
      <point x="300" y="427"/>
      <point x="146" y="427" type="curve"/>
      <point x="146" y="690" type="line"/>
      <point x="194" y="696"/>
      <point x="254" y="703"/>
      <point x="313" y="698" type="curve" smooth="yes"/>
      <point x="378" y="692"/>
      <point x="430" y="662"/>
    </contour>
  </outline>
</glyph>
<glyph name="C" format="1">
  <advance width="638"/>
  <unicode hex="0043"/>
  <outline>
    <contour>
      <point x="579" y="680" type="line"/>
      <point x="579" y="680"/>
      <point x="519" y="785"/>
      <point x="357" y="785" type="curve"/>
      <point x="197" y="785"/>
      <point x="45" y="640"/>
      <point x="45" y="363" type="curve" smooth="yes"/>
      <point x="45" y="147"/>
      <point x="174" y="-10"/>
      <point x="351" y="-15" type="curve" smooth="yes"/>
      <point x="519" y="-20"/>
      <point x="577" y="72"/>
      <point x="608" y="98" type="curve"/>
      <point x="553" y="153" type="line"/>
      <point x="552" y="153"/>
      <point x="486" y="61"/>
      <point x="356" y="64" type="curve" smooth="yes"/>
      <point x="236" y="67"/>
      <point x="135" y="195"/>
      <point x="135" y="363" type="curve" smooth="yes"/>
      <point x="135" y="589"/>
      <point x="246" y="701"/>
      <point x="356" y="701" type="curve" smooth="yes"/>
      <point x="473" y="701"/>
      <point x="521" y="624"/>
      <point x="521" y="624" type="curve"/>
    </contour>
  </outline>
</glyph>
<glyph name="D" format="1">
  <advance width="718"/>
  <unicode hex="0044"/>
  <outline>
    <contour>
      <point x="176" y="0" type="line"/>
      <point x="286" y="0"/>
      <point x="282" y="0"/>
      <point x="343" y="0" type="curve" smooth="yes"/>
      <point x="528" y="0"/>
      <point x="657" y="138"/>
      <point x="657" y="380" type="curve" smooth="yes"/>
      <point x="657" y="717"/>
      <point x="480" y="775"/>
      <point x="295" y="775" type="curve" smooth="yes"/>
      <point x="233" y="775"/>
      <point x="185" y="769"/>
      <point x="88" y="757" type="curve"/>
      <point x="88" y="0" type="line"/>
    </contour>
    <contour>
      <point x="569" y="380" type="curve" smooth="yes"/>
      <point x="569" y="190"/>
      <point x="472" y="76"/>
      <point x="343" y="76" type="curve" smooth="yes"/>
      <point x="269" y="76"/>
      <point x="265" y="76"/>
      <point x="176" y="76" type="curve"/>
      <point x="176" y="689" type="line"/>
      <point x="191" y="691"/>
      <point x="232" y="700"/>
      <point x="297" y="700" type="curve" smooth="yes"/>
      <point x="511" y="700"/>
      <point x="569" y="569"/>
    </contour>
  </outline>
</glyph>
<glyph name="E" format="1">
  <advance width="568"/>
  <unicode hex="0045"/>
  <outline>
    <contour>
      <point x="526" y="0" type="line"/>
      <point x="526" y="81" type="line"/>
      <point x="526" y="81"/>
      <point x="486" y="76"/>
      <point x="421" y="76" type="curve" smooth="yes"/>
      <point x="177" y="76" type="line"/>
      <point x="177" y="361" type="line"/>
      <point x="462" y="361" type="line"/>
      <point x="462" y="437" type="line"/>
      <point x="177" y="437" type="line"/>
      <point x="177" y="695" type="line"/>
      <point x="512" y="695" type="line"/>
      <point x="512" y="775" type="line"/>
      <point x="512" y="775"/>
      <point x="472" y="770"/>
      <point x="407" y="770" type="curve" smooth="yes"/>
      <point x="89" y="770" type="line"/>
      <point x="89" y="0" type="line"/>
    </contour>
  </outline>
</glyph>
<glyph name="F" format="1">
  <advance width="549"/>
  <unicode hex="0046"/>
  <outline>
    <contour>
      <point x="176" y="0" type="line"/>
      <point x="176" y="361" type="line"/>
      <point x="461" y="361" type="line"/>
      <point x="461" y="437" type="line"/>
      <point x="176" y="437" type="line"/>
      <point x="176" y="696" type="line"/>
      <point x="511" y="696" type="line"/>
      <point x="511" y="775" type="line"/>
      <point x="511" y="775"/>
      <point x="471" y="770"/>
      <point x="406" y="770" type="curve" smooth="yes"/>
      <point x="88" y="770" type="line"/>
      <point x="88" y="0" type="line"/>
    </contour>
  </outline>
</glyph>
<glyph name="G" format="1">
  <advance width="751"/>
  <unicode hex="0047"/>
  <outline>
    <contour>
      <point x="665" y="378" type="line"/>
      <point x="494" y="378" type="line" smooth="yes"/>
      <point x="471" y="378"/>
      <point x="432" y="377"/>
      <point x="400" y="385" type="curve"/>
      <point x="400" y="313" type="line"/>
      <point x="428" y="298"/>
      <point x="467" y="300"/>
      <point x="491" y="300" type="curve" smooth="yes"/>
      <point x="581" y="300" type="line"/>
      <point x="581" y="156" type="line" smooth="yes"/>
      <point x="581" y="109"/>
      <point x="479" y="65"/>
      <point x="420" y="65" type="curve" smooth="yes"/>
      <point x="201" y="65"/>
      <point x="152" y="246"/>
      <point x="152" y="368" type="curve" smooth="yes"/>
      <point x="152" y="615"/>
      <point x="315" y="709"/>
      <point x="423" y="709" type="curve" smooth="yes"/>
      <point x="536" y="709"/>
      <point x="600" y="609"/>
      <point x="600" y="609" type="curve"/>
      <point x="659" y="667" type="line"/>
      <point x="659" y="667"/>
      <point x="575" y="785"/>
      <point x="419" y="785" type="curve"/>
      <point x="268" y="785"/>
      <point x="61" y="680"/>
      <point x="61" y="368" type="curve" smooth="yes"/>
      <point x="61" y="209"/>
      <point x="129" y="-15"/>
      <point x="424" y="-15" type="curve"/>
      <point x="541" y="-13"/>
      <point x="665" y="56"/>
      <point x="665" y="147" type="curve" smooth="yes"/>
    </contour>
  </outline>
</glyph>
<glyph name="H" format="1">
  <advance width="748"/>
  <unicode hex="0048"/>
  <outline>
    <contour>
      <point x="176" y="0" type="line"/>
      <point x="176" y="360" type="line"/>
      <point x="572" y="360" type="line"/>
      <point x="572" y="0" type="line"/>
      <point x="660" y="0" type="line"/>
      <point x="660" y="770" type="line"/>
      <point x="572" y="770" type="line"/>
      <point x="572" y="436" type="line"/>
      <point x="176" y="436" type="line"/>
      <point x="176" y="770" type="line"/>
      <point x="88" y="770" type="line"/>
      <point x="88" y="0" type="line"/>
    </contour>
  </outline>
</glyph>
<glyph name="I" format="1">
  <advance width="264"/>
  <unicode hex="0049"/>
  <outline>
    <contour>
      <point x="176" y="0" type="line"/>
      <point x="176" y="770" type="line"/>
      <point x="88" y="770" type="line"/>
      <point x="88" y="0" type="line"/>
    </contour>
  </outline>
</glyph>
<glyph name="J" format="1">
  <advance width="292"/>
  <unicode hex="004A"/>
  <outline>
    <contour>
      <point x="117" y="770" type="line"/>
      <point x="117" y="-17" type="line" smooth="yes"/>
      <point x="117" y="-116"/>
      <point x="54" y="-163"/>
      <point x="-7" y="-180" type="curve"/>
      <point x="25" y="-259" type="line"/>
      <point x="93" y="-237"/>
      <point x="205" y="-178"/>
      <point x="205" y="-17" type="curve" smooth="yes"/>
      <point x="205" y="770" type="line"/>
    </contour>
  </outline>
</glyph>
<glyph name="K" format="1">
  <advance width="610"/>
  <unicode hex="004B"/>
  <outline>
    <contour>
      <point x="88" y="770" type="line"/>
      <point x="88" y="0" type="line"/>
      <point x="176" y="0" type="line"/>
      <point x="176" y="338" type="line"/>
      <point x="230" y="350"/>
      <point x="277" y="338"/>
      <point x="312" y="294" type="curve" smooth="yes"/>
      <point x="343" y="255"/>
      <point x="464" y="36"/>
      <point x="498" y="0" type="curve"/>
      <point x="601" y="0" type="line"/>
      <point x="602" y="0" type="line"/>
      <point x="543" y="68"/>
      <point x="413" y="307"/>
      <point x="369" y="354" type="curve" smooth="yes"/>
      <point x="339" y="386"/>
      <point x="295" y="407"/>
      <point x="269" y="410" type="curve"/>
      <point x="551" y="770" type="line"/>
      <point x="442" y="770" type="line"/>
      <point x="176" y="429" type="line"/>
      <point x="176" y="770" type="line"/>
    </contour>
  </outline>
</glyph>
<glyph name="L" format="1">
  <advance width="593"/>
  <unicode hex="004C"/>
  <outline>
    <contour>
      <point x="88" y="0" type="line"/>
      <point x="525" y="0" type="line"/>
      <point x="525" y="81" type="line"/>
      <point x="525" y="81"/>
      <point x="485" y="76"/>
      <point x="420" y="76" type="curve" smooth="yes"/>
      <point x="176" y="76" type="line"/>
      <point x="176" y="770" type="line"/>
      <point x="88" y="770" type="line"/>
    </contour>
  </outline>
</glyph>
<glyph name="M" format="1">
  <advance width="857"/>
  <unicode hex="004D"/>
  <outline>
    <contour>
      <point x="176" y="0" type="line"/>
      <point x="176" y="540" type="line"/>
      <point x="175" y="556" type="line"/>
      <point x="179" y="540" type="line"/>
      <point x="386" y="0" type="line"/>
      <point x="471" y="0" type="line"/>
      <point x="678" y="540" type="line"/>
      <point x="682" y="557" type="line"/>
      <point x="681" y="540" type="line"/>
      <point x="681" y="0" type="line"/>
      <point x="769" y="0" type="line"/>
      <point x="769" y="770" type="line"/>
      <point x="681" y="770" type="line"/>
      <point x="429" y="110" type="line"/>
      <point x="428" y="103" type="line"/>
      <point x="427" y="110" type="line"/>
      <point x="176" y="770" type="line"/>
      <point x="88" y="770" type="line"/>
      <point x="88" y="0" type="line"/>
    </contour>
  </outline>
</glyph>
<glyph name="N" format="1">
  <advance width="730"/>
  <unicode hex="004E"/>
  <outline>
    <contour>
      <point x="176" y="0" type="line"/>
      <point x="176" y="608" type="line"/>
      <point x="175" y="622" type="line"/>
      <point x="182" y="608" type="line"/>
      <point x="554" y="1" type="line"/>
      <point x="554" y="0" type="line"/>
      <point x="642" y="0" type="line"/>
      <point x="642" y="770" type="line"/>
      <point x="554" y="770" type="line"/>
      <point x="554" y="164" type="line"/>
      <point x="555" y="150" type="line"/>
      <point x="548" y="164" type="line"/>
      <point x="176" y="769" type="line"/>
      <point x="176" y="770" type="line"/>
      <point x="88" y="770" type="line"/>
      <point x="88" y="0" type="line"/>
    </contour>
  </outline>
</glyph>
<glyph name="O" format="1">
  <advance width="765"/>
  <unicode hex="004F"/>
  <outline>
    <contour>
      <point x="383" y="785" type="curve"/>
      <point x="233" y="785"/>
      <point x="62" y="697"/>
      <point x="62" y="384" type="curve" smooth="yes"/>
      <point x="62" y="70"/>
      <point x="233" y="-15"/>
      <point x="380" y="-15" type="curve" smooth="yes"/>
      <point x="538" y="-15"/>
      <point x="699" y="71"/>
      <point x="699" y="386" type="curve"/>
      <point x="698" y="695"/>
      <point x="530" y="785"/>
    </contour>
    <contour>
      <point x="383" y="710" type="curve"/>
      <point x="490" y="710"/>
      <point x="611" y="628"/>
      <point x="611" y="384" type="curve" smooth="yes"/>
      <point x="610" y="136"/>
      <point x="490" y="61"/>
      <point x="380" y="61" type="curve" smooth="yes"/>
      <point x="279" y="61"/>
      <point x="150" y="137"/>
      <point x="150" y="386" type="curve" smooth="yes"/>
      <point x="150" y="631"/>
      <point x="279" y="710"/>
    </contour>
  </outline>
</glyph>
<glyph name="P" format="1">
  <advance width="578"/>
  <unicode hex="0050"/>
  <outline>
    <contour>
      <point x="131" y="0" type="line"/>
      <point x="131" y="292" type="line"/>
      <point x="172" y="264"/>
      <point x="220" y="240"/>
      <point x="288" y="240" type="curve" smooth="yes"/>
      <point x="438" y="240"/>
      <point x="527" y="340"/>
      <point x="527" y="532" type="curve" smooth="yes"/>
      <point x="527" y="681"/>
      <point x="432" y="785"/>
      <point x="295" y="785" type="curve" smooth="yes"/>
      <point x="236" y="785"/>
      <point x="177" y="767"/>
      <point x="131" y="740" type="curve"/>
      <point x="131" y="770" type="line"/>
      <point x="43" y="770" type="line"/>
      <point x="43" y="0" type="line"/>
    </contour>
    <contour>
      <point x="442" y="532" type="curve" smooth="yes"/>
      <point x="442" y="389"/>
      <point x="381" y="320"/>
      <point x="292" y="320" type="curve" smooth="yes"/>
      <point x="232" y="320"/>
      <point x="177" y="344"/>
      <point x="131" y="385" type="curve"/>
      <point x="131" y="657" type="line"/>
      <point x="174" y="689"/>
      <point x="219" y="708"/>
      <point x="266" y="708" type="curve" smooth="yes"/>
      <point x="376" y="708"/>
      <point x="442" y="635"/>
    </contour>
  </outline>
</glyph>
<glyph name="Q" format="1">
  <advance width="765"/>
  <unicode hex="0051"/>
  <outline>
    <contour>
      <point x="383" y="785" type="curve" smooth="yes"/>
      <point x="233" y="785"/>
      <point x="62" y="697"/>
      <point x="62" y="384" type="curve" smooth="yes"/>
      <point x="62" y="106"/>
      <point x="196" y="7"/>
      <point x="329" y="-11" type="curve"/>
      <point x="346" y="-54"/>
      <point x="407" y="-132"/>
      <point x="537" y="-134" type="curve" smooth="yes"/>
      <point x="567" y="-134"/>
      <point x="626" y="-129"/>
      <point x="653" y="-117" type="curve"/>
      <point x="631" y="-45" type="line"/>
      <point x="598" y="-56"/>
      <point x="565" y="-61"/>
      <point x="537" y="-61" type="curve" smooth="yes"/>
      <point x="475" y="-61"/>
      <point x="447" y="-33"/>
      <point x="429" y="-12" type="curve"/>
      <point x="569" y="5"/>
      <point x="699" y="103"/>
      <point x="699" y="386" type="curve" smooth="yes"/>
      <point x="698" y="695"/>
      <point x="530" y="785"/>
    </contour>
    <contour>
      <point x="383" y="710" type="curve" smooth="yes"/>
      <point x="490" y="710"/>
      <point x="611" y="628"/>
      <point x="611" y="384" type="curve" smooth="yes"/>
      <point x="610" y="136"/>
      <point x="490" y="61"/>
      <point x="380" y="61" type="curve" smooth="yes"/>
      <point x="279" y="61"/>
      <point x="150" y="137"/>
      <point x="150" y="386" type="curve" smooth="yes"/>
      <point x="150" y="631"/>
      <point x="279" y="710"/>
    </contour>
  </outline>
</glyph>
<glyph name="R" format="1">
  <advance width="665"/>
  <unicode hex="0052"/>
  <outline>
    <contour>
      <point x="176" y="0" type="line"/>
      <point x="176" y="322" type="line"/>
      <point x="205" y="322"/>
      <point x="229" y="322"/>
      <point x="257" y="322" type="curve"/>
      <point x="362" y="290"/>
      <point x="453" y="69"/>
      <point x="540" y="0" type="curve"/>
      <point x="647" y="0" type="line"/>
      <point x="647" y="2" type="line"/>
      <point x="551" y="76"/>
      <point x="472" y="258"/>
      <point x="384" y="329" type="curve"/>
      <point x="470" y="347"/>
      <point x="557" y="408"/>
      <point x="558" y="565" type="curve"/>
      <point x="550" y="701"/>
      <point x="471" y="785"/>
      <point x="345" y="785" type="curve" smooth="yes"/>
      <point x="282" y="784"/>
      <point x="229" y="772"/>
      <point x="176" y="739" type="curve"/>
      <point x="176" y="770" type="line"/>
      <point x="88" y="770" type="line"/>
      <point x="88" y="0" type="line"/>
    </contour>
    <contour>
      <point x="324" y="397" type="curve"/>
      <point x="176" y="397" type="line"/>
      <point x="176" y="657" type="line"/>
      <point x="225" y="690"/>
      <point x="273" y="706"/>
      <point x="331" y="706" type="curve" smooth="yes"/>
      <point x="418" y="706"/>
      <point x="472" y="650"/>
      <point x="472" y="565" type="curve" smooth="yes"/>
      <point x="471" y="429"/>
      <point x="388" y="398"/>
    </contour>
  </outline>
</glyph>
<glyph name="S" format="1">
  <advance width="618"/>
  <unicode hex="0053"/>
  <outline>
    <contour>
      <point x="50" y="136" type="line"/>
      <point x="114" y="34"/>
      <point x="196" y="-11"/>
      <point x="317" y="-15" type="curve"/>
      <point x="447" y="-15"/>
      <point x="565" y="58"/>
      <point x="565" y="208" type="curve" smooth="yes"/>
      <point x="565" y="358"/>
      <point x="444" y="405"/>
      <point x="327" y="441" type="curve" smooth="yes"/>
      <point x="241" y="467"/>
      <point x="162" y="496"/>
      <point x="165" y="572" type="curve" smooth="yes"/>
      <point x="170" y="687"/>
      <point x="256" y="705"/>
      <point x="301" y="705" type="curve" smooth="yes"/>
      <point x="375" y="705"/>
      <point x="417" y="679"/>
      <point x="456" y="638" type="curve"/>
      <point x="516" y="689" type="line"/>
      <point x="463" y="752"/>
      <point x="399" y="785"/>
      <point x="301" y="785" type="curve" smooth="yes"/>
      <point x="230" y="785"/>
      <point x="82" y="755"/>
      <point x="79" y="572" type="curve" smooth="yes"/>
      <point x="77" y="434"/>
      <point x="186" y="393"/>
      <point x="303" y="357" type="curve" smooth="yes"/>
      <point x="395" y="329"/>
      <point x="479" y="302"/>
      <point x="479" y="208" type="curve" smooth="yes"/>
      <point x="479" y="112"/>
      <point x="405" y="65"/>
      <point x="319" y="65" type="curve"/>
      <point x="226" y="67"/>
      <point x="164" y="107"/>
      <point x="112" y="191" type="curve"/>
    </contour>
  </outline>
</glyph>
<glyph name="T" format="1">
  <advance width="547"/>
  <unicode hex="0054"/>
  <outline>
    <contour>
      <point x="2" y="694" type="line"/>
      <point x="227" y="694" type="line"/>
      <point x="227" y="0" type="line"/>
      <point x="315" y="0" type="line"/>
      <point x="315" y="694" type="line"/>
      <point x="544" y="694" type="line"/>
      <point x="544" y="770" type="line"/>
      <point x="2" y="770" type="line"/>
    </contour>
  </outline>
</glyph>
<glyph name="U" format="1">
  <advance width="672"/>
  <unicode hex="0055"/>
  <outline>
    <contour>
      <point x="591" y="239" type="curve"/>
      <point x="591" y="770" type="line"/>
      <point x="503" y="770" type="line"/>
      <point x="503" y="239" type="line"/>
      <point x="502" y="90"/>
      <point x="390" y="65"/>
      <point x="334" y="65" type="curve" smooth="yes"/>
      <point x="277" y="65"/>
      <point x="164" y="86"/>
      <point x="164" y="241" type="curve" smooth="yes"/>
      <point x="164" y="770" type="line"/>
      <point x="76" y="770" type="line"/>
      <point x="76" y="239" type="line"/>
      <point x="77" y="16"/>
      <point x="249" y="-12"/>
      <point x="334" y="-12" type="curve" smooth="yes"/>
      <point x="418" y="-12"/>
      <point x="590" y="14"/>
    </contour>
  </outline>
</glyph>
<glyph name="V" format="1">
  <advance width="690"/>
  <unicode hex="0056"/>
  <outline>
    <contour>
      <point x="391" y="0" type="line"/>
      <point x="665" y="770" type="line"/>
      <point x="572" y="770" type="line"/>
      <point x="348" y="137" type="line"/>
      <point x="345" y="124" type="line"/>
      <point x="342" y="137" type="line"/>
      <point x="118" y="770" type="line"/>
      <point x="25" y="770" type="line"/>
      <point x="299" y="0" type="line"/>
    </contour>
  </outline>
</glyph>
<glyph name="W" format="1">
  <advance width="976"/>
  <unicode hex="0057"/>
  <outline>
    <contour>
      <point x="316" y="0" type="line"/>
      <point x="484" y="594" type="line"/>
      <point x="487" y="612" type="line"/>
      <point x="490" y="594" type="line"/>
      <point x="660" y="0" type="line"/>
      <point x="733" y="0" type="line"/>
      <point x="951" y="770" type="line"/>
      <point x="860" y="770" type="line"/>
      <point x="698" y="158" type="line"/>
      <point x="696" y="146" type="line"/>
      <point x="694" y="158" type="line"/>
      <point x="534" y="770" type="line"/>
      <point x="441" y="770" type="line"/>
      <point x="281" y="160" type="line"/>
      <point x="279" y="148" type="line"/>
      <point x="277" y="160" type="line"/>
      <point x="115" y="770" type="line"/>
      <point x="25" y="770" type="line"/>
      <point x="243" y="0" type="line"/>
    </contour>
  </outline>
</glyph>
<glyph name="X" format="1">
  <advance width="663"/>
  <unicode hex="0058"/>
  <outline>
    <contour>
      <point x="523" y="770" type="line"/>
      <point x="331" y="469" type="line"/>
      <point x="138" y="770" type="line"/>
      <point x="33" y="770" type="line"/>
      <point x="277" y="384" type="line"/>
      <point x="33" y="0" type="line"/>
      <point x="141" y="0" type="line"/>
      <point x="331" y="299" type="line"/>
      <point x="523" y="0" type="line"/>
      <point x="630" y="0" type="line"/>
      <point x="385" y="384" type="line"/>
      <point x="630" y="770" type="line"/>
    </contour>
  </outline>
</glyph>
<glyph name="Y" format="1">
  <advance width="601"/>
  <unicode hex="0059"/>
  <outline>
    <contour>
      <point x="500" y="770" type="line"/>
      <point x="302" y="461" type="line"/>
      <point x="105" y="770" type="line"/>
      <point x="2" y="770" type="line"/>
      <point x="258" y="369" type="line"/>
      <point x="258" y="0" type="line"/>
      <point x="345" y="0" type="line"/>
      <point x="345" y="369" type="line"/>
      <point x="599" y="770" type="line"/>
    </contour>
  </outline>
</glyph>
<glyph name="Z" format="1">
  <advance width="620"/>
  <unicode hex="005A"/>
  <outline>
    <contour>
      <point x="567" y="98" type="line"/>
      <point x="523" y="82"/>
      <point x="451" y="82"/>
      <point x="451" y="82" type="curve"/>
      <point x="161" y="82" type="line"/>
      <point x="546" y="690" type="line"/>
      <point x="546" y="770" type="line"/>
      <point x="64" y="770" type="line"/>
      <point x="64" y="688" type="line"/>
      <point x="439" y="688" type="line"/>
      <point x="54" y="82" type="line"/>
      <point x="54" y="0" type="line"/>
      <point x="449" y="0" type="line"/>
      <point x="449" y="0"/>
      <point x="539" y="0"/>
      <point x="567" y="15" type="curve"/>
    </contour>
  </outline>
</glyph>
<glyph name="bracketleft" format="1">
  <advance width="365"/>
  <unicode hex="005B"/>
  <outline>
    <contour>
      <point x="292" y="770" type="line"/>
      <point x="88" y="770" type="line"/>
      <point x="88" y="-260" type="line"/>
      <point x="292" y="-260" type="line"/>
      <point x="292" y="-200" type="line"/>
      <point x="172" y="-200" type="line"/>
      <point x="172" y="710" type="line"/>
      <point x="292" y="710" type="line"/>
    </contour>
  </outline>
</glyph>
<glyph name="backslash" format="1">
  <advance width="448"/>
  <unicode hex="005C"/>
  <outline>
    <contour>
      <point x="28" y="770" type="line"/>
      <point x="259" y="0" type="line"/>
      <point x="342" y="0" type="line"/>
      <point x="111" y="770" type="line"/>
    </contour>
  </outline>
</glyph>
<glyph name="bracketright" format="1">
  <advance width="365"/>
  <unicode hex="005D"/>
  <outline>
    <contour>
      <point x="73" y="-260" type="line"/>
      <point x="277" y="-260" type="line"/>
      <point x="277" y="770" type="line"/>
      <point x="73" y="770" type="line"/>
      <point x="73" y="710" type="line"/>
      <point x="193" y="710" type="line"/>
      <point x="193" y="-200" type="line"/>
      <point x="73" y="-200" type="line"/>
    </contour>
  </outline>
</glyph>
<glyph name="asciicircum" format="1">
  <advance width="660"/>
  <unicode hex="005E"/>
  <outline>
    <contour>
      <point x="294" y="550" type="line"/>
      <point x="43" y="0" type="line"/>
      <point x="115" y="0" type="line"/>
      <point x="330" y="471" type="line"/>
      <point x="545" y="0" type="line"/>
      <point x="617" y="0" type="line"/>
      <point x="366" y="550" type="line"/>
    </contour>
  </outline>
</glyph>
<glyph name="underscore" format="1">
  <advance width="667"/>
  <unicode hex="005F"/>
  <outline>
    <contour>
      <point x="609" y="0" type="line"/>
      <point x="58" y="0" type="line"/>
      <point x="58" y="-64" type="line"/>
      <point x="609" y="-64" type="line"/>
    </contour>
  </outline>
</glyph>
<glyph name="grave" format="1">
  <advance width="365"/>
  <unicode hex="0060"/>
  <outline>
    <contour>
      <point x="65" y="756" type="line"/>
      <point x="231" y="610" type="line"/>
      <point x="300" y="610" type="line"/>
      <point x="169" y="756" type="line"/>
    </contour>
  </outline>
</glyph>
<glyph name="a" format="1">
  <advance width="529"/>
  <unicode hex="0061"/>
  <outline>
    <contour>
      <point x="91" y="407" type="curve"/>
      <point x="91" y="406"/>
      <point x="225" y="484"/>
      <point x="310" y="484" type="curve" smooth="yes"/>
      <point x="367" y="484"/>
      <point x="372" y="425"/>
      <point x="372" y="404" type="curve"/>
      <point x="372" y="341" type="line"/>
      <point x="348" y="335"/>
      <point x="306" y="328"/>
      <point x="233" y="318" type="curve" smooth="yes"/>
      <point x="64" y="293"/>
      <point x="35" y="209"/>
      <point x="35" y="138" type="curve" smooth="yes"/>
      <point x="35" y="-1"/>
      <point x="168" y="-12"/>
      <point x="190" y="-12" type="curve" smooth="yes"/>
      <point x="264" y="-12"/>
      <point x="330" y="23"/>
      <point x="378" y="74" type="curve"/>
      <point x="387" y="39"/>
      <point x="407" y="7"/>
      <point x="455" y="-12" type="curve"/>
      <point x="509" y="38" type="line"/>
      <point x="454" y="64"/>
      <point x="455" y="104"/>
      <point x="455" y="108" type="curve" smooth="yes"/>
      <point x="455" y="404" type="line"/>
      <point x="455" y="456"/>
      <point x="437" y="562"/>
      <point x="322" y="562" type="curve" smooth="yes"/>
      <point x="211" y="562"/>
      <point x="94" y="495"/>
      <point x="58" y="475" type="curve"/>
      <point x="57" y="473"/>
      <point x="91" y="408"/>
    </contour>
    <contour>
      <point x="187" y="58" type="curve" smooth="yes"/>
      <point x="172" y="59"/>
      <point x="117" y="69"/>
      <point x="117" y="138" type="curve" smooth="yes"/>
      <point x="117" y="184"/>
      <point x="133" y="231"/>
      <point x="242" y="248" type="curve" smooth="yes"/>
      <point x="307" y="258"/>
      <point x="342" y="263"/>
      <point x="372" y="269" type="curve"/>
      <point x="372" y="151" type="line"/>
      <point x="332" y="101"/>
      <point x="257" y="53"/>
    </contour>
  </outline>
</glyph>
<glyph name="b" format="1">
  <advance width="576"/>
  <unicode hex="0062"/>
  <outline>
    <contour>
      <point x="316" y="562" type="curve" smooth="yes"/>
      <point x="226" y="562"/>
      <point x="174" y="527"/>
      <point x="130" y="479" type="curve"/>
      <point x="130" y="820" type="line"/>
      <point x="47" y="820" type="line"/>
      <point x="47" y="0" type="line"/>
      <point x="130" y="0" type="line"/>
      <point x="130" y="54" type="line"/>
      <point x="186" y="9"/>
      <point x="252" y="-12"/>
      <point x="302" y="-12" type="curve" smooth="yes"/>
      <point x="445" y="-12"/>
      <point x="533" y="97"/>
      <point x="533" y="284" type="curve" smooth="yes"/>
      <point x="533" y="429"/>
      <point x="465" y="562"/>
    </contour>
    <contour>
      <point x="316" y="480" type="curve" smooth="yes"/>
      <point x="404" y="479"/>
      <point x="449" y="385"/>
      <point x="449" y="284" type="curve" smooth="yes"/>
      <point x="449" y="149"/>
      <point x="391" y="67"/>
      <point x="302" y="67" type="curve" smooth="yes"/>
      <point x="250" y="67"/>
      <point x="179" y="97"/>
      <point x="130" y="146" type="curve"/>
      <point x="130" y="376" type="line"/>
      <point x="162" y="426"/>
      <point x="219" y="481"/>
    </contour>
  </outline>
</glyph>
<glyph name="c" format="1">
  <advance width="499"/>
  <unicode hex="0063"/>
  <outline>
    <contour>
      <point x="286" y="562" type="curve" smooth="yes"/>
      <point x="179" y="562"/>
      <point x="50" y="472"/>
      <point x="50" y="265" type="curve" smooth="yes"/>
      <point x="50" y="109"/>
      <point x="141" y="-12"/>
      <point x="279" y="-12" type="curve" smooth="yes"/>
      <point x="330" y="-12"/>
      <point x="386" y="-6"/>
      <point x="465" y="75" type="curve"/>
      <point x="413" y="125" type="line"/>
      <point x="354" y="69"/>
      <point x="318" y="62"/>
      <point x="279" y="62" type="curve" smooth="yes"/>
      <point x="191" y="62"/>
      <point x="134" y="155"/>
      <point x="134" y="265" type="curve" smooth="yes"/>
      <point x="134" y="415"/>
      <point x="215" y="487"/>
      <point x="284" y="487" type="curve" smooth="yes"/>
      <point x="368" y="487"/>
      <point x="402" y="424"/>
      <point x="402" y="424" type="curve"/>
      <point x="455" y="474" type="line"/>
      <point x="455" y="474"/>
      <point x="399" y="562"/>
    </contour>
  </outline>
</glyph>
<glyph name="d" format="1">
  <advance width="606"/>
  <unicode hex="0064"/>
  <outline>
    <contour>
      <point x="242" y="-8" type="curve" smooth="yes"/>
      <point x="328" y="-9"/>
      <point x="398" y="33"/>
      <point x="451" y="93" type="curve"/>
      <point x="455" y="62"/>
      <point x="466" y="11"/>
      <point x="535" y="-14" type="curve"/>
      <point x="588" y="40" type="line"/>
      <point x="524" y="61"/>
      <point x="530" y="132"/>
      <point x="530" y="132" type="curve"/>
      <point x="530" y="820" type="line"/>
      <point x="446" y="820" type="line"/>
      <point x="446" y="486" type="line"/>
      <point x="389" y="535"/>
      <point x="329" y="562"/>
      <point x="275" y="562" type="curve" smooth="yes"/>
      <point x="132" y="562"/>
      <point x="42" y="453"/>
      <point x="42" y="266" type="curve" smooth="yes"/>
      <point x="42" y="121"/>
      <point x="120" y="-7"/>
    </contour>
    <contour>
      <point x="242" y="73" type="curve" smooth="yes"/>
      <point x="172" y="78"/>
      <point x="128" y="165"/>
      <point x="128" y="266" type="curve" smooth="yes"/>
      <point x="128" y="401"/>
      <point x="186" y="480"/>
      <point x="275" y="480" type="curve" smooth="yes"/>
      <point x="327" y="480"/>
      <point x="391" y="443"/>
      <point x="446" y="389" type="curve"/>
      <point x="446" y="206" type="line"/>
      <point x="414" y="155"/>
      <point x="348" y="65"/>
    </contour>
  </outline>
</glyph>
<glyph name="e" format="1">
  <advance width="542"/>
  <unicode hex="0065"/>
  <outline>
    <contour>
      <point x="43" y="269" type="curve" smooth="yes"/>
      <point x="43" y="118"/>
      <point x="123" y="-12"/>
      <point x="283" y="-12" type="curve" smooth="yes"/>
      <point x="324" y="-12"/>
      <point x="404" y="-16"/>
      <point x="504" y="108" type="curve"/>
      <point x="453" y="157" type="line"/>
      <point x="377" y="57"/>
      <point x="312" y="60"/>
      <point x="283" y="60" type="curve" smooth="yes"/>
      <point x="177" y="60"/>
      <point x="121" y="149"/>
      <point x="126" y="279" type="curve"/>
      <point x="501" y="279" type="line"/>
      <point x="501" y="318" type="line" smooth="yes"/>
      <point x="501" y="357"/>
      <point x="484" y="562"/>
      <point x="279" y="562" type="curve" smooth="yes"/>
      <point x="135" y="562"/>
      <point x="43" y="429"/>
    </contour>
    <contour>
      <point x="279" y="490" type="curve" smooth="yes"/>
      <point x="373" y="490"/>
      <point x="407" y="409"/>
      <point x="416" y="353" type="curve"/>
      <point x="137" y="353" type="line"/>
      <point x="159" y="430"/>
      <point x="205" y="490"/>
    </contour>
  </outline>
</glyph>
<glyph name="f" format="1">
  <advance width="400"/>
  <unicode hex="0066"/>
  <outline>
    <contour>
      <point x="187" y="646" type="line"/>
      <point x="188" y="707"/>
      <point x="192" y="755"/>
      <point x="259" y="755" type="curve" smooth="yes"/>
      <point x="311" y="755"/>
      <point x="382" y="710"/>
      <point x="382" y="710" type="curve"/>
      <point x="433" y="761" type="line"/>
      <point x="433" y="761"/>
      <point x="338" y="825"/>
      <point x="259" y="825" type="curve" smooth="yes"/>
      <point x="144" y="825"/>
      <point x="104" y="749"/>
      <point x="104" y="646" type="curve" smooth="yes"/>
      <point x="104" y="550" type="line"/>
      <point x="33" y="550" type="line"/>
      <point x="33" y="480" type="line"/>
      <point x="104" y="480" type="line"/>
      <point x="104" y="0" type="line"/>
      <point x="187" y="0" type="line"/>
      <point x="187" y="480" type="line"/>
      <point x="349" y="480" type="line"/>
      <point x="349" y="550" type="line"/>
      <point x="187" y="550" type="line"/>
    </contour>
  </outline>
</glyph>
<glyph name="g" format="1">
  <advance width="587"/>
  <unicode hex="0067"/>
  <outline>
    <contour>
      <point x="140" y="388" type="curve" smooth="yes"/>
      <point x="140" y="470"/>
      <point x="224" y="500"/>
      <point x="274" y="500" type="curve" smooth="yes"/>
      <point x="324" y="500"/>
      <point x="407" y="470"/>
      <point x="407" y="388" type="curve" smooth="yes"/>
      <point x="407" y="283"/>
      <point x="324" y="261"/>
      <point x="274" y="261" type="curve" smooth="yes"/>
      <point x="224" y="261"/>
      <point x="140" y="274"/>
    </contour>
    <contour>
      <point x="71" y="122" type="curve"/>
      <point x="71" y="88"/>
      <point x="94" y="69"/>
      <point x="122" y="57" type="curve"/>
      <point x="74" y="22"/>
      <point x="39" y="-10"/>
      <point x="38" y="-98" type="curve"/>
      <point x="38" y="-194"/>
      <point x="152" y="-275"/>
      <point x="278" y="-275" type="curve" smooth="yes"/>
      <point x="471" y="-275"/>
      <point x="559" y="-171"/>
      <point x="559" y="-50" type="curve" smooth="yes"/>
      <point x="559" y="83"/>
      <point x="406" y="107"/>
      <point x="275" y="114" type="curve" smooth="yes"/>
      <point x="252" y="115"/>
      <point x="162" y="115"/>
      <point x="155" y="122" type="curve"/>
      <point x="155" y="150"/>
      <point x="182" y="179"/>
      <point x="214" y="202" type="curve"/>
      <point x="235" y="198"/>
      <point x="256" y="197"/>
      <point x="274" y="197" type="curve" smooth="yes"/>
      <point x="356" y="197"/>
      <point x="490" y="229"/>
      <point x="490" y="388" type="curve" smooth="yes"/>
      <point x="490" y="452"/>
      <point x="455" y="496"/>
      <point x="411" y="524" type="curve"/>
      <point x="435" y="534"/>
      <point x="464" y="540"/>
      <point x="492" y="540" type="curve" smooth="yes"/>
      <point x="510" y="540"/>
      <point x="526" y="538"/>
      <point x="538" y="534" type="curve"/>
      <point x="552" y="604" type="line"/>
      <point x="532" y="610"/>
      <point x="511" y="614"/>
      <point x="492" y="614" type="curve" smooth="yes"/>
      <point x="439" y="614"/>
      <point x="382" y="592"/>
      <point x="341" y="555" type="curve"/>
      <point x="317" y="561"/>
      <point x="294" y="564"/>
      <point x="274" y="564" type="curve" smooth="yes"/>
      <point x="192" y="564"/>
      <point x="57" y="513"/>
      <point x="57" y="388" type="curve" smooth="yes"/>
      <point x="57" y="300"/>
      <point x="96" y="252"/>
      <point x="142" y="226" type="curve"/>
      <point x="102" y="194"/>
      <point x="71" y="157"/>
    </contour>
    <contour>
      <point x="278" y="-202" type="curve" smooth="yes"/>
      <point x="202" y="-202"/>
      <point x="120" y="-156"/>
      <point x="120" y="-98" type="curve" smooth="yes"/>
      <point x="120" y="-13"/>
      <point x="155" y="12"/>
      <point x="202" y="41" type="curve"/>
      <point x="229" y="41"/>
      <point x="255" y="40"/>
      <point x="274" y="40" type="curve"/>
      <point x="365" y="35"/>
      <point x="476" y="23"/>
      <point x="476" y="-50" type="curve" smooth="yes"/>
      <point x="476" y="-131"/>
      <point x="413" y="-202"/>
    </contour>
  </outline>
</glyph>
<glyph name="h" format="1">
  <advance width="560"/>
  <unicode hex="0068"/>
  <outline>
    <contour>
      <point x="137" y="0" type="line"/>
      <point x="137" y="347" type="line"/>
      <point x="183" y="395"/>
      <point x="273" y="478"/>
      <point x="377" y="478" type="curve" smooth="yes"/>
      <point x="408" y="478"/>
      <point x="420" y="445"/>
      <point x="420" y="391" type="curve" smooth="yes"/>
      <point x="420" y="0" type="line"/>
      <point x="504" y="0" type="line"/>
      <point x="504" y="391" type="line" smooth="yes"/>
      <point x="504" y="497"/>
      <point x="468" y="562"/>
      <point x="377" y="562" type="curve" smooth="yes"/>
      <point x="287" y="562"/>
      <point x="198" y="503"/>
      <point x="137" y="444" type="curve"/>
      <point x="137" y="820" type="line"/>
      <point x="53" y="820" type="line"/>
      <point x="53" y="0" type="line"/>
    </contour>
  </outline>
</glyph>
<glyph name="i" format="1">
  <advance width="211"/>
  <unicode hex="0069"/>
  <outline>
    <contour>
      <point x="64" y="550" type="line"/>
      <point x="64" y="0" type="line"/>
      <point x="147" y="0" type="line"/>
      <point x="147" y="550" type="line"/>
    </contour>
    <contour>
      <point x="54" y="719" type="curve" smooth="yes"/>
      <point x="54" y="689"/>
      <point x="76" y="667"/>
      <point x="106" y="667" type="curve" smooth="yes"/>
      <point x="135" y="667"/>
      <point x="157" y="689"/>
      <point x="157" y="719" type="curve" smooth="yes"/>
      <point x="157" y="748"/>
      <point x="135" y="770"/>
      <point x="106" y="770" type="curve" smooth="yes"/>
      <point x="76" y="770"/>
      <point x="54" y="748"/>
    </contour>
  </outline>
</glyph>
<glyph name="j" format="1">
  <advance width="199"/>
  <unicode hex="006A"/>
  <outline>
    <contour>
      <point x="52" y="550" type="line"/>
      <point x="52" y="-43" type="line" smooth="yes"/>
      <point x="52" y="-122"/>
      <point x="12" y="-191"/>
      <point x="-27" y="-196" type="curve"/>
      <point x="-2" y="-275" type="line"/>
      <point x="59" y="-254"/>
      <point x="135" y="-169"/>
      <point x="135" y="-43" type="curve" smooth="yes"/>
      <point x="135" y="550" type="line"/>
    </contour>
    <contour>
      <point x="42" y="719" type="curve" smooth="yes"/>
      <point x="42" y="689"/>
      <point x="64" y="667"/>
      <point x="94" y="667" type="curve" smooth="yes"/>
      <point x="123" y="667"/>
      <point x="145" y="689"/>
      <point x="145" y="719" type="curve" smooth="yes"/>
      <point x="145" y="748"/>
      <point x="123" y="770"/>
      <point x="94" y="770" type="curve" smooth="yes"/>
      <point x="64" y="770"/>
      <point x="42" y="748"/>
    </contour>
  </outline>
</glyph>
<glyph name="k" format="1">
  <advance width="544"/>
  <unicode hex="006B"/>
  <outline>
    <contour>
      <point x="546" y="0" type="line"/>
      <point x="529" y="0"/>
      <point x="343" y="210"/>
      <point x="277" y="287" type="curve" smooth="yes"/>
      <point x="259" y="307"/>
      <point x="239" y="319"/>
      <point x="221" y="326" type="curve"/>
      <point x="306" y="390"/>
      <point x="434" y="493"/>
      <point x="449" y="550" type="curve"/>
      <point x="364" y="550" type="line"/>
      <point x="328" y="479"/>
      <point x="155" y="363"/>
      <point x="145" y="356" type="curve"/>
      <point x="145" y="820" type="line"/>
      <point x="61" y="820" type="line"/>
      <point x="61" y="0" type="line"/>
      <point x="145" y="0" type="line"/>
      <point x="145" y="268" type="line"/>
      <point x="149" y="269"/>
      <point x="161" y="271"/>
      <point x="169" y="269" type="curve" smooth="yes"/>
      <point x="184" y="265"/>
      <point x="197" y="254"/>
      <point x="217" y="233" type="curve" smooth="yes"/>
      <point x="277" y="167"/>
      <point x="406" y="9"/>
      <point x="433" y="0" type="curve"/>
    </contour>
  </outline>
</glyph>
<glyph name="l" format="1">
  <advance width="233"/>
  <unicode hex="006C"/>
  <outline>
    <contour>
      <point x="50" y="820" type="line"/>
      <point x="50" y="146" type="line" smooth="yes"/>
      <point x="50" y="109"/>
      <point x="50" y="57"/>
      <point x="85" y="22" type="curve" smooth="yes"/>
      <point x="116" y="-9"/>
      <point x="176" y="-12"/>
      <point x="207" y="-12" type="curve"/>
      <point x="210" y="59" type="line"/>
      <point x="182" y="59"/>
      <point x="161" y="65"/>
      <point x="146" y="80" type="curve" smooth="yes"/>
      <point x="133" y="93"/>
      <point x="133" y="123"/>
      <point x="133" y="146" type="curve" smooth="yes"/>
      <point x="133" y="820" type="line"/>
    </contour>
  </outline>
</glyph>
<glyph name="m" format="1">
  <advance width="860"/>
  <unicode hex="006D"/>
  <outline>
    <contour>
      <point x="132" y="0" type="line"/>
      <point x="132" y="349" type="line"/>
      <point x="172" y="397"/>
      <point x="245" y="478"/>
      <point x="340" y="478" type="curve" smooth="yes"/>
      <point x="371" y="478"/>
      <point x="383" y="445"/>
      <point x="383" y="391" type="curve" smooth="yes"/>
      <point x="383" y="0" type="line"/>
      <point x="467" y="0" type="line"/>
      <point x="467" y="349" type="line"/>
      <point x="507" y="397"/>
      <point x="573" y="478"/>
      <point x="675" y="478" type="curve" smooth="yes"/>
      <point x="706" y="478"/>
      <point x="718" y="445"/>
      <point x="718" y="391" type="curve" smooth="yes"/>
      <point x="718" y="0" type="line"/>
      <point x="802" y="0" type="line"/>
      <point x="802" y="391" type="line" smooth="yes"/>
      <point x="802" y="497"/>
      <point x="766" y="562"/>
      <point x="675" y="562" type="curve" smooth="yes"/>
      <point x="587" y="562"/>
      <point x="516" y="506"/>
      <point x="464" y="448" type="curve"/>
      <point x="454" y="526"/>
      <point x="416" y="562"/>
      <point x="340" y="562" type="curve" smooth="yes"/>
      <point x="253" y="562"/>
      <point x="184" y="508"/>
      <point x="132" y="451" type="curve"/>
      <point x="132" y="550" type="line"/>
      <point x="48" y="550" type="line"/>
      <point x="48" y="0" type="line"/>
    </contour>
  </outline>
</glyph>
<glyph name="n" format="1">
  <advance width="563"/>
  <unicode hex="006E"/>
  <outline>
    <contour>
      <point x="140" y="0" type="line"/>
      <point x="140" y="347" type="line"/>
      <point x="193" y="401"/>
      <point x="280" y="478"/>
      <point x="380" y="478" type="curve" smooth="yes"/>
      <point x="411" y="478"/>
      <point x="423" y="445"/>
      <point x="423" y="391" type="curve" smooth="yes"/>
      <point x="423" y="0" type="line"/>
      <point x="507" y="0" type="line"/>
      <point x="507" y="391" type="line" smooth="yes"/>
      <point x="507" y="497"/>
      <point x="471" y="562"/>
      <point x="380" y="562" type="curve" smooth="yes"/>
      <point x="290" y="562"/>
      <point x="201" y="503"/>
      <point x="140" y="444" type="curve"/>
      <point x="140" y="550" type="line"/>
      <point x="56" y="550" type="line"/>
      <point x="56" y="0" type="line"/>
    </contour>
  </outline>
</glyph>
<glyph name="o" format="1">
  <advance width="565"/>
  <unicode hex="006F"/>
  <outline>
    <contour>
      <point x="44" y="275" type="curve" smooth="yes"/>
      <point x="44" y="58"/>
      <point x="163" y="-12"/>
      <point x="283" y="-12" type="curve" smooth="yes"/>
      <point x="403" y="-12"/>
      <point x="522" y="63"/>
      <point x="522" y="275" type="curve" smooth="yes"/>
      <point x="522" y="484"/>
      <point x="403" y="562"/>
      <point x="283" y="562" type="curve" smooth="yes"/>
      <point x="163" y="562"/>
      <point x="44" y="485"/>
    </contour>
    <contour>
      <point x="438" y="275" type="curve" smooth="yes"/>
      <point x="438" y="114"/>
      <point x="359" y="56"/>
      <point x="283" y="56" type="curve" smooth="yes"/>
      <point x="207" y="56"/>
      <point x="128" y="117"/>
      <point x="128" y="275" type="curve" smooth="yes"/>
      <point x="128" y="435"/>
      <point x="207" y="493"/>
      <point x="283" y="493" type="curve" smooth="yes"/>
      <point x="359" y="493"/>
      <point x="438" y="430"/>
    </contour>
  </outline>
</glyph>
<glyph name="p" format="1">
  <advance width="581"/>
  <unicode hex="0070"/>
  <outline>
    <contour>
      <point x="133" y="-260" type="line"/>
      <point x="133" y="64" type="line"/>
      <point x="189" y="19"/>
      <point x="254" y="-12"/>
      <point x="304" y="-12" type="curve" smooth="yes"/>
      <point x="447" y="-12"/>
      <point x="535" y="97"/>
      <point x="535" y="284" type="curve" smooth="yes"/>
      <point x="535" y="429"/>
      <point x="459" y="561"/>
      <point x="337" y="562" type="curve" smooth="yes"/>
      <point x="247" y="563"/>
      <point x="178" y="516"/>
      <point x="133" y="458" type="curve"/>
      <point x="133" y="550" type="line"/>
      <point x="51" y="550" type="line"/>
      <point x="51" y="-260" type="line"/>
    </contour>
    <contour>
      <point x="337" y="480" type="curve" smooth="yes"/>
      <point x="407" y="479"/>
      <point x="451" y="385"/>
      <point x="451" y="284" type="curve" smooth="yes"/>
      <point x="451" y="149"/>
      <point x="393" y="70"/>
      <point x="304" y="70" type="curve" smooth="yes"/>
      <point x="252" y="70"/>
      <point x="182" y="107"/>
      <point x="133" y="156" type="curve"/>
      <point x="133" y="350" type="line"/>
      <point x="165" y="400"/>
      <point x="233" y="481"/>
    </contour>
  </outline>
</glyph>
<glyph name="q" format="1">
  <advance width="587"/>
  <unicode hex="0071"/>
  <outline>
    <contour>
      <point x="245" y="-12" type="curve" smooth="yes"/>
      <point x="334" y="-13"/>
      <point x="403" y="48"/>
      <point x="449" y="105" type="curve"/>
      <point x="449" y="-260" type="line"/>
      <point x="533" y="-260" type="line"/>
      <point x="533" y="550" type="line"/>
      <point x="449" y="550" type="line"/>
      <point x="449" y="496" type="line"/>
      <point x="393" y="541"/>
      <point x="327" y="562"/>
      <point x="278" y="562" type="curve" smooth="yes"/>
      <point x="135" y="562"/>
      <point x="47" y="453"/>
      <point x="47" y="266" type="curve" smooth="yes"/>
      <point x="47" y="121"/>
      <point x="123" y="-11"/>
    </contour>
    <contour>
      <point x="245" y="67" type="curve" smooth="yes"/>
      <point x="175" y="68"/>
      <point x="131" y="165"/>
      <point x="131" y="266" type="curve" smooth="yes"/>
      <point x="131" y="401"/>
      <point x="189" y="484"/>
      <point x="278" y="484" type="curve" smooth="yes"/>
      <point x="330" y="484"/>
      <point x="399" y="442"/>
      <point x="449" y="394" type="curve"/>
      <point x="449" y="210" type="line"/>
      <point x="417" y="159"/>
      <point x="349" y="65"/>
    </contour>
  </outline>
</glyph>
<glyph name="r" format="1">
  <advance width="433"/>
  <unicode hex="0072"/>
  <outline>
    <contour>
      <point x="56" y="550" type="line"/>
      <point x="56" y="0" type="line"/>
      <point x="140" y="0" type="line"/>
      <point x="140" y="344" type="line"/>
      <point x="169" y="405"/>
      <point x="219" y="482"/>
      <point x="283" y="482" type="curve" smooth="yes"/>
      <point x="330" y="482"/>
      <point x="354" y="451"/>
      <point x="354" y="451" type="curve"/>
      <point x="412" y="507" type="line"/>
      <point x="412" y="507"/>
      <point x="365" y="562"/>
      <point x="279" y="562" type="curve" smooth="yes"/>
      <point x="223" y="562"/>
      <point x="175" y="535"/>
      <point x="140" y="475" type="curve"/>
      <point x="140" y="550" type="line"/>
    </contour>
  </outline>
</glyph>
<glyph name="s" format="1">
  <advance width="480"/>
  <unicode hex="0073"/>
  <outline>
    <contour>
      <point x="146" y="405" type="curve" smooth="yes"/>
      <point x="146" y="479"/>
      <point x="209" y="492"/>
      <point x="238" y="492" type="curve" smooth="yes"/>
      <point x="287" y="492"/>
      <point x="331" y="474"/>
      <point x="357" y="446" type="curve"/>
      <point x="411" y="498" type="line"/>
      <point x="372" y="537"/>
      <point x="310" y="562"/>
      <point x="238" y="562" type="curve" smooth="yes"/>
      <point x="185" y="562"/>
      <point x="63" y="539"/>
      <point x="63" y="405" type="curve" smooth="yes"/>
      <point x="63" y="302"/>
      <point x="152" y="272"/>
      <point x="236" y="247" type="curve" smooth="yes"/>
      <point x="295" y="229"/>
      <point x="360" y="208"/>
      <point x="360" y="151" type="curve" smooth="yes"/>
      <point x="360" y="88"/>
      <point x="306" y="58"/>
      <point x="251" y="58" type="curve" smooth="yes"/>
      <point x="187" y="59"/>
      <point x="122" y="92"/>
      <point x="92" y="147" type="curve"/>
      <point x="34" y="100" type="line"/>
      <point x="81" y="25"/>
      <point x="168" y="-12"/>
      <point x="249" y="-12" type="curve" smooth="yes"/>
      <point x="346" y="-12"/>
      <point x="443" y="40"/>
      <point x="443" y="151" type="curve" smooth="yes"/>
      <point x="443" y="269"/>
      <point x="349" y="296"/>
      <point x="260" y="323" type="curve" smooth="yes"/>
      <point x="202" y="341"/>
      <point x="146" y="358"/>
    </contour>
  </outline>
</glyph>
<glyph name="t" format="1">
  <advance width="398"/>
  <unicode hex="0074"/>
  <outline>
    <contour>
      <point x="40" y="482" type="line"/>
      <point x="110" y="482" type="line"/>
      <point x="110" y="160" type="line" smooth="yes"/>
      <point x="110" y="56"/>
      <point x="140" y="-12"/>
      <point x="224" y="-12" type="curve" smooth="yes"/>
      <point x="287" y="-12"/>
      <point x="336" y="5"/>
      <point x="380" y="51" type="curve"/>
      <point x="329" y="100" type="line"/>
      <point x="304" y="76"/>
      <point x="279" y="61"/>
      <point x="246" y="61" type="curve" smooth="yes"/>
      <point x="194" y="61"/>
      <point x="194" y="123"/>
      <point x="194" y="160" type="curve" smooth="yes"/>
      <point x="194" y="482" type="line"/>
      <point x="326" y="482" type="line"/>
      <point x="326" y="552" type="line"/>
      <point x="194" y="552" type="line"/>
      <point x="194" y="750" type="line"/>
      <point x="110" y="750" type="line"/>
      <point x="110" y="552" type="line"/>
      <point x="40" y="552" type="line"/>
    </contour>
  </outline>
</glyph>
<glyph name="u" format="1">
  <advance width="563"/>
  <unicode hex="0075"/>
  <outline>
    <contour>
      <point x="183" y="69" type="curve" smooth="yes"/>
      <point x="152" y="69"/>
      <point x="140" y="105"/>
      <point x="140" y="159" type="curve" smooth="yes"/>
      <point x="140" y="550" type="line"/>
      <point x="56" y="550" type="line"/>
      <point x="56" y="159" type="line" smooth="yes"/>
      <point x="56" y="53"/>
      <point x="92" y="-12"/>
      <point x="183" y="-12" type="curve" smooth="yes"/>
      <point x="272" y="-12"/>
      <point x="361" y="38"/>
      <point x="423" y="97" type="curve"/>
      <point x="423" y="0" type="line"/>
      <point x="507" y="0" type="line"/>
      <point x="507" y="550" type="line"/>
      <point x="423" y="550" type="line"/>
      <point x="423" y="202" type="line"/>
      <point x="370" y="147"/>
      <point x="282" y="69"/>
    </contour>
  </outline>
</glyph>
<glyph name="v" format="1">
  <advance width="493"/>
  <unicode hex="0076"/>
  <outline>
    <contour>
      <point x="3" y="550" type="line"/>
      <point x="213" y="0" type="line"/>
      <point x="286" y="0" type="line"/>
      <point x="286" y="0"/>
      <point x="420" y="466"/>
      <point x="498" y="550" type="curve"/>
      <point x="407" y="550" type="line"/>
      <point x="378" y="524"/>
      <point x="294" y="296"/>
      <point x="249" y="125" type="curve" smooth="yes"/>
      <point x="248" y="122"/>
      <point x="247" y="101"/>
      <point x="246" y="106" type="curve" smooth="yes"/>
      <point x="243" y="125" type="line"/>
      <point x="100" y="550" type="line"/>
    </contour>
  </outline>
</glyph>
<glyph name="w" format="1">
  <advance width="753"/>
  <unicode hex="0077"/>
  <outline>
    <contour>
      <point x="251" y="0" type="line"/>
      <point x="372" y="424" type="line"/>
      <point x="495" y="0" type="line"/>
      <point x="566" y="0" type="line"/>
      <point x="566" y="0"/>
      <point x="713" y="523"/>
      <point x="740" y="550" type="curve"/>
      <point x="658" y="550" type="line"/>
      <point x="639" y="540"/>
      <point x="572" y="291"/>
      <point x="532" y="140" type="curve"/>
      <point x="529" y="119" type="line"/>
      <point x="525" y="140" type="line"/>
      <point x="408" y="550" type="line"/>
      <point x="336" y="550" type="line"/>
      <point x="219" y="140" type="line"/>
      <point x="216" y="119" type="line"/>
      <point x="213" y="140" type="line"/>
      <point x="104" y="550" type="line"/>
      <point x="13" y="550" type="line"/>
      <point x="172" y="0" type="line"/>
    </contour>
  </outline>
</glyph>
<glyph name="x" format="1">
  <advance width="573"/>
  <unicode hex="0078"/>
  <outline>
    <contour>
      <point x="52" y="550" type="line"/>
      <point x="246" y="281" type="line"/>
      <point x="211" y="230"/>
      <point x="54" y="10"/>
      <point x="32" y="0" type="curve"/>
      <point x="136" y="0" type="line"/>
      <point x="150" y="4"/>
      <point x="248" y="147"/>
      <point x="293" y="212" type="curve"/>
      <point x="435" y="0" type="line"/>
      <point x="541" y="0" type="line"/>
      <point x="341" y="282" type="line"/>
      <point x="389" y="350"/>
      <point x="525" y="540"/>
      <point x="546" y="550" type="curve"/>
      <point x="442" y="550" type="line"/>
      <point x="429" y="546"/>
      <point x="341" y="421"/>
      <point x="294" y="351" type="curve"/>
      <point x="158" y="550" type="line"/>
    </contour>
  </outline>
</glyph>
<glyph name="y" format="1">
  <advance width="522"/>
  <unicode hex="0079"/>
  <outline>
    <contour>
      <point x="24" y="550" type="line"/>
      <point x="216" y="50" type="line"/>
      <point x="189" y="-17" type="line" smooth="yes"/>
      <point x="151" y="-109"/>
      <point x="133" y="-136"/>
      <point x="109" y="-159" type="curve" smooth="yes"/>
      <point x="88" y="-180"/>
      <point x="64" y="-198"/>
      <point x="3" y="-202" type="curve"/>
      <point x="24" y="-275" type="line"/>
      <point x="59" y="-273"/>
      <point x="112" y="-266"/>
      <point x="166" y="-214" type="curve" smooth="yes"/>
      <point x="217" y="-165"/>
      <point x="243" y="-101"/>
      <point x="268" y="-39" type="curve" smooth="yes"/>
      <point x="486" y="496"/>
      <point x="501" y="523"/>
      <point x="529" y="550" type="curve"/>
      <point x="434" y="550" type="line"/>
      <point x="415" y="534"/>
      <point x="331" y="333"/>
      <point x="262" y="164" type="curve"/>
      <point x="113" y="550" type="line"/>
    </contour>
  </outline>
</glyph>
<glyph name="z" format="1">
  <advance width="529"/>
  <unicode hex="007A"/>
  <outline>
    <contour>
      <point x="486" y="88" type="line"/>
      <point x="470" y="71"/>
      <point x="415" y="71"/>
      <point x="415" y="71" type="curve"/>
      <point x="159" y="71" type="line"/>
      <point x="469" y="480" type="line"/>
      <point x="469" y="550" type="line"/>
      <point x="58" y="550" type="line"/>
      <point x="58" y="480" type="line"/>
      <point x="368" y="480" type="line"/>
      <point x="58" y="71" type="line"/>
      <point x="58" y="0" type="line"/>
      <point x="414" y="0" type="line"/>
      <point x="414" y="0"/>
      <point x="473" y="2"/>
      <point x="486" y="17" type="curve"/>
    </contour>
  </outline>
</glyph>
<glyph name="braceleft" format="1">
  <advance width="476"/>
  <unicode hex="007B"/>
  <outline>
    <contour>
      <point x="287" y="830" type="curve" smooth="yes"/>
      <point x="195" y="830"/>
      <point x="179" y="729"/>
      <point x="179" y="678" type="curve" smooth="yes"/>
      <point x="179" y="380" type="line"/>
      <point x="179" y="380"/>
      <point x="180" y="307"/>
      <point x="83" y="307" type="curve"/>
      <point x="83" y="257" type="line"/>
      <point x="179" y="257"/>
      <point x="179" y="184"/>
      <point x="179" y="184" type="curve"/>
      <point x="179" y="-114" type="line" smooth="yes"/>
      <point x="179" y="-165"/>
      <point x="195" y="-266"/>
      <point x="287" y="-266" type="curve" smooth="yes"/>
      <point x="353" y="-266"/>
      <point x="403" y="-233"/>
      <point x="403" y="-233" type="curve"/>
      <point x="375" y="-163" type="line"/>
      <point x="375" y="-163"/>
      <point x="347" y="-182"/>
      <point x="287" y="-182" type="curve" smooth="yes"/>
      <point x="267" y="-182"/>
      <point x="263" y="-137"/>
      <point x="263" y="-114" type="curve" smooth="yes"/>
      <point x="263" y="185" type="line" smooth="yes"/>
      <point x="263" y="189"/>
      <point x="262" y="247"/>
      <point x="199" y="282" type="curve"/>
      <point x="260" y="317"/>
      <point x="263" y="376"/>
      <point x="263" y="379" type="curve" smooth="yes"/>
      <point x="263" y="678" type="line" smooth="yes"/>
      <point x="263" y="701"/>
      <point x="267" y="746"/>
      <point x="287" y="746" type="curve" smooth="yes"/>
      <point x="347" y="746"/>
      <point x="375" y="727"/>
      <point x="375" y="727" type="curve"/>
      <point x="403" y="797" type="line"/>
      <point x="403" y="797"/>
      <point x="353" y="830"/>
    </contour>
  </outline>
</glyph>
<glyph name="bar" format="1">
  <advance width="252"/>
  <unicode hex="007C"/>
  <outline>
    <contour>
      <point x="164" y="-260" type="line"/>
      <point x="164" y="830" type="line"/>
      <point x="88" y="830" type="line"/>
      <point x="88" y="-260" type="line"/>
    </contour>
  </outline>
</glyph>
<glyph name="braceright" format="1">
  <advance width="476"/>
  <unicode hex="007D"/>
  <outline>
    <contour>
      <point x="189" y="746" type="curve" smooth="yes"/>
      <point x="209" y="746"/>
      <point x="213" y="701"/>
      <point x="213" y="678" type="curve" smooth="yes"/>
      <point x="213" y="379" type="line" smooth="yes"/>
      <point x="213" y="375"/>
      <point x="214" y="317"/>
      <point x="276" y="282" type="curve"/>
      <point x="214" y="246"/>
      <point x="213" y="184"/>
      <point x="213" y="184" type="curve"/>
      <point x="213" y="-114" type="line" smooth="yes"/>
      <point x="213" y="-137"/>
      <point x="209" y="-182"/>
      <point x="189" y="-182" type="curve" smooth="yes"/>
      <point x="129" y="-182"/>
      <point x="101" y="-163"/>
      <point x="101" y="-163" type="curve"/>
      <point x="73" y="-233" type="line"/>
      <point x="73" y="-233"/>
      <point x="123" y="-266"/>
      <point x="189" y="-266" type="curve" smooth="yes"/>
      <point x="281" y="-266"/>
      <point x="297" y="-165"/>
      <point x="297" y="-114" type="curve" smooth="yes"/>
      <point x="297" y="185" type="line" smooth="yes"/>
      <point x="297" y="190"/>
      <point x="300" y="257"/>
      <point x="393" y="257" type="curve"/>
      <point x="393" y="307" type="line"/>
      <point x="296" y="307"/>
      <point x="297" y="380"/>
      <point x="297" y="380" type="curve"/>
      <point x="297" y="678" type="line" smooth="yes"/>
      <point x="297" y="729"/>
      <point x="281" y="830"/>
      <point x="189" y="830" type="curve" smooth="yes"/>
      <point x="123" y="830"/>
      <point x="73" y="797"/>
      <point x="73" y="797" type="curve"/>
      <point x="101" y="727" type="line"/>
      <point x="101" y="727"/>
      <point x="129" y="746"/>
    </contour>
  </outline>
</glyph>
<glyph name="asciitilde" format="1">
  <advance width="648"/>
  <unicode hex="007E"/>
  <outline>
    <contour>
      <point x="89" y="296" type="line"/>
      <point x="89" y="296"/>
      <point x="116" y="323"/>
      <point x="202" y="332" type="curve" smooth="yes"/>
      <point x="233" y="335"/>
      <point x="273" y="327"/>
      <point x="313" y="317" type="curve" smooth="yes"/>
      <point x="364" y="305"/>
      <point x="415" y="294"/>
      <point x="460" y="299" type="curve" smooth="yes"/>
      <point x="547" y="308"/>
      <point x="595" y="347"/>
      <point x="595" y="347" type="curve"/>
      <point x="563" y="403" type="line"/>
      <point x="563" y="403"/>
      <point x="530" y="376"/>
      <point x="452" y="367" type="curve" smooth="yes"/>
      <point x="415" y="363"/>
      <point x="363" y="374"/>
      <point x="322" y="383" type="curve" smooth="yes"/>
      <point x="276" y="395"/>
      <point x="230" y="405"/>
      <point x="194" y="401" type="curve" smooth="yes"/>
      <point x="95" y="390"/>
      <point x="53" y="349"/>
      <point x="53" y="349" type="curve"/>
    </contour>
  </outline>
</glyph>
<glyph name="cent" format="1">
  <advance width="499"/>
  <unicode hex="00A2"/>
  <outline>
    <contour>
      <point x="334" y="655" type="line"/>
      <point x="309" y="560" type="line"/>
      <point x="302" y="561"/>
      <point x="294" y="562"/>
      <point x="286" y="562" type="curve" smooth="yes"/>
      <point x="179" y="562"/>
      <point x="50" y="472"/>
      <point x="50" y="265" type="curve" smooth="yes"/>
      <point x="50" y="156"/>
      <point x="94" y="64"/>
      <point x="167" y="19" type="curve"/>
      <point x="139" y="-90" type="line"/>
      <point x="197" y="-90" type="line"/>
      <point x="219" y="-4" type="line"/>
      <point x="238" y="-9"/>
      <point x="258" y="-12"/>
      <point x="279" y="-12" type="curve" smooth="yes"/>
      <point x="330" y="-12"/>
      <point x="386" y="-6"/>
      <point x="465" y="75" type="curve"/>
      <point x="413" y="125" type="line"/>
      <point x="354" y="69"/>
      <point x="318" y="62"/>
      <point x="279" y="62" type="curve" smooth="yes"/>
      <point x="264" y="62"/>
      <point x="251" y="64"/>
      <point x="238" y="69" type="curve"/>
      <point x="344" y="474" type="line"/>
      <point x="384" y="456"/>
      <point x="402" y="424"/>
      <point x="402" y="424" type="curve"/>
      <point x="455" y="474" type="line"/>
      <point x="455" y="474"/>
      <point x="424" y="522"/>
      <point x="363" y="547" type="curve"/>
      <point x="392" y="655" type="line"/>
    </contour>
    <contour>
      <point x="134" y="265" type="curve" smooth="yes"/>
      <point x="134" y="415"/>
      <point x="215" y="487"/>
      <point x="284" y="487" type="curve" smooth="yes"/>
      <point x="290" y="487" type="line"/>
      <point x="189" y="102" type="line"/>
      <point x="154" y="140"/>
      <point x="134" y="199"/>
    </contour>
  </outline>
</glyph>
<glyph name="dieresis" format="1">
  <advance width="434"/>
  <unicode hex="00A8"/>
  <outline>
    <contour>
      <point x="65" y="662" type="curve" smooth="yes"/>
      <point x="65" y="632"/>
      <point x="87" y="610"/>
      <point x="117" y="610" type="curve" smooth="yes"/>
      <point x="146" y="610"/>
      <point x="168" y="632"/>
      <point x="168" y="662" type="curve" smooth="yes"/>
      <point x="168" y="691"/>
      <point x="146" y="713"/>
      <point x="117" y="713" type="curve" smooth="yes"/>
      <point x="87" y="713"/>
      <point x="65" y="691"/>
    </contour>
    <contour>
      <point x="266" y="662" type="curve" smooth="yes"/>
      <point x="266" y="632"/>
      <point x="289" y="610"/>
      <point x="318" y="610" type="curve" smooth="yes"/>
      <point x="348" y="610"/>
      <point x="369" y="632"/>
      <point x="369" y="662" type="curve" smooth="yes"/>
      <point x="369" y="691"/>
      <point x="348" y="713"/>
      <point x="318" y="713" type="curve" smooth="yes"/>
      <point x="289" y="713"/>
      <point x="266" y="691"/>
    </contour>
  </outline>
</glyph>
<glyph name="copyright" format="1">
  <advance width="867"/>
  <unicode hex="00A9"/>
  <outline>
    <contour>
      <point x="48" y="385" type="curve"/>
      <point x="48" y="172"/>
      <point x="221" y="0"/>
      <point x="434" y="0" type="curve" smooth="yes"/>
      <point x="647" y="0"/>
      <point x="819" y="172"/>
      <point x="819" y="385" type="curve" smooth="yes"/>
      <point x="819" y="599"/>
      <point x="647" y="771"/>
      <point x="434" y="771" type="curve" smooth="yes"/>
      <point x="221" y="771"/>
      <point x="48" y="599"/>
    </contour>
    <contour>
      <point x="437" y="596" type="curve"/>
      <point x="360" y="596"/>
      <point x="263" y="528"/>
      <point x="263" y="377" type="curve" smooth="yes"/>
      <point x="263" y="262"/>
      <point x="331" y="174"/>
      <point x="432" y="174" type="curve" smooth="yes"/>
      <point x="470" y="174"/>
      <point x="510" y="179"/>
      <point x="571" y="242" type="curve"/>
      <point x="529" y="284" type="line"/>
      <point x="485" y="242"/>
      <point x="460" y="237"/>
      <point x="432" y="237" type="curve" smooth="yes"/>
      <point x="374" y="237"/>
      <point x="334" y="303"/>
      <point x="334" y="377" type="curve" smooth="yes"/>
      <point x="334" y="483"/>
      <point x="390" y="531"/>
      <point x="435" y="531" type="curve" smooth="yes"/>
      <point x="492" y="531"/>
      <point x="519" y="484"/>
      <point x="519" y="484" type="curve"/>
      <point x="564" y="527" type="line"/>
      <point x="564" y="527"/>
      <point x="521" y="596"/>
    </contour>
    <contour>
      <point x="106" y="385" type="curve"/>
      <point x="106" y="565"/>
      <point x="254" y="712"/>
      <point x="434" y="712" type="curve" smooth="yes"/>
      <point x="613" y="712"/>
      <point x="761" y="565"/>
      <point x="761" y="385" type="curve" smooth="yes"/>
      <point x="761" y="206"/>
      <point x="613" y="58"/>
      <point x="434" y="58" type="curve" smooth="yes"/>
      <point x="254" y="58"/>
      <point x="106" y="206"/>
    </contour>
  </outline>
</glyph>
<glyph name="registered" format="1">
  <advance width="867"/>
  <unicode hex="00AE"/>
  <outline>
    <contour>
      <point x="348" y="178" type="line"/>
      <point x="348" y="345" type="line"/>
      <point x="388" y="345" type="line"/>
      <point x="419" y="332"/>
      <point x="457" y="290"/>
      <point x="485" y="252" type="curve" smooth="yes"/>
      <point x="505" y="223"/>
      <point x="527" y="194"/>
      <point x="549" y="178" type="curve"/>
      <point x="634" y="178" type="line"/>
      <point x="592" y="209"/>
      <point x="565" y="243"/>
      <point x="541" y="276" type="curve" smooth="yes"/>
      <point x="523" y="301"/>
      <point x="497" y="332"/>
      <point x="477" y="351" type="curve"/>
      <point x="526" y="365"/>
      <point x="568" y="397"/>
      <point x="569" y="479" type="curve"/>
      <point x="569" y="567"/>
      <point x="499" y="598"/>
      <point x="444" y="600" type="curve"/>
      <point x="409" y="600"/>
      <point x="379" y="597"/>
      <point x="348" y="580" type="curve"/>
      <point x="348" y="594" type="line"/>
      <point x="286" y="594" type="line"/>
      <point x="286" y="178" type="line"/>
    </contour>
    <contour>
      <point x="429" y="395" type="curve"/>
      <point x="348" y="395" type="line"/>
      <point x="348" y="523" type="line"/>
      <point x="377" y="540"/>
      <point x="408" y="548"/>
      <point x="444" y="545" type="curve"/>
      <point x="476" y="545"/>
      <point x="508" y="525"/>
      <point x="508" y="479" type="curve" smooth="yes"/>
      <point x="507" y="411"/>
      <point x="463" y="396"/>
    </contour>
    <contour>
      <point x="48" y="385" type="curve" smooth="yes"/>
      <point x="48" y="172"/>
      <point x="221" y="0"/>
      <point x="434" y="0" type="curve" smooth="yes"/>
      <point x="647" y="0"/>
      <point x="819" y="172"/>
      <point x="819" y="385" type="curve" smooth="yes"/>
      <point x="819" y="599"/>
      <point x="647" y="771"/>
      <point x="434" y="771" type="curve" smooth="yes"/>
      <point x="221" y="771"/>
      <point x="48" y="599"/>
    </contour>
    <contour>
      <point x="106" y="385" type="curve" smooth="yes"/>
      <point x="106" y="565"/>
      <point x="254" y="712"/>
      <point x="434" y="712" type="curve" smooth="yes"/>
      <point x="613" y="712"/>
      <point x="761" y="565"/>
      <point x="761" y="385" type="curve" smooth="yes"/>
      <point x="761" y="206"/>
      <point x="613" y="58"/>
      <point x="434" y="58" type="curve" smooth="yes"/>
      <point x="254" y="58"/>
      <point x="106" y="206"/>
    </contour>
  </outline>
</glyph>
<glyph name="acute" format="1">
  <advance width="355"/>
  <unicode hex="00B4"/>
  <outline>
    <contour>
      <point x="191" y="756" type="line"/>
      <point x="60" y="610" type="line"/>
      <point x="129" y="610" type="line"/>
      <point x="295" y="756" type="line"/>
    </contour>
  </outline>
</glyph>
<glyph name="idieresis" format="1">
  <advance width="209"/>
  <unicode hex="00EF"/>
  <outline>
    <contour>
      <point x="63" y="550" type="line"/>
      <point x="63" y="0" type="line"/>
      <point x="146" y="0" type="line"/>
      <point x="146" y="550" type="line"/>
    </contour>
    <component base="dieresis" xOffset="-112"/>
  </outline>
</glyph>
<glyph name="dotlessi" format="1">
  <advance width="211"/>
  <unicode hex="0131"/>
  <outline>
    <contour>
      <point x="64" y="550" type="line"/>
      <point x="64" y="0" type="line"/>
      <point x="147" y="0" type="line"/>
      <point x="147" y="550" type="line"/>
    </contour>
  </outline>
</glyph>
<glyph name="circumflex" format="1">
  <advance width="508"/>
  <unicode hex="02C6"/>
  <outline>
    <contour>
      <point x="221" y="756" type="line"/>
      <point x="65" y="610" type="line"/>
      <point x="156" y="610" type="line"/>
      <point x="254" y="705" type="line"/>
      <point x="352" y="610" type="line"/>
      <point x="443" y="610" type="line"/>
      <point x="287" y="756" type="line"/>
    </contour>
  </outline>
</glyph>
<glyph name="caron" format="1">
  <advance width="498"/>
  <unicode hex="02C7"/>
  <outline>
    <contour>
      <point x="282" y="605" type="line"/>
      <point x="438" y="751" type="line"/>
      <point x="347" y="751" type="line"/>
      <point x="249" y="656" type="line"/>
      <point x="151" y="751" type="line"/>
      <point x="60" y="751" type="line"/>
      <point x="216" y="605" type="line"/>
    </contour>
  </outline>
</glyph>
<glyph name="tilde" format="1">
  <advance width="539"/>
  <unicode hex="02DC"/>
  <outline>
    <contour>
      <point x="449" y="718" type="line"/>
      <point x="449" y="718"/>
      <point x="422" y="683"/>
      <point x="364" y="680" type="curve" smooth="yes"/>
      <point x="339" y="679"/>
      <point x="305" y="692"/>
      <point x="275" y="703" type="curve" smooth="yes"/>
      <point x="239" y="716"/>
      <point x="202" y="729"/>
      <point x="173" y="727" type="curve" smooth="yes"/>
      <point x="104" y="723"/>
      <point x="65" y="674"/>
      <point x="65" y="674" type="curve"/>
      <point x="90" y="624" type="line"/>
      <point x="90" y="624"/>
      <point x="118" y="659"/>
      <point x="175" y="662" type="curve" smooth="yes"/>
      <point x="200" y="663"/>
      <point x="234" y="650"/>
      <point x="264" y="639" type="curve" smooth="yes"/>
      <point x="300" y="626"/>
      <point x="337" y="613"/>
      <point x="366" y="615" type="curve" smooth="yes"/>
      <point x="435" y="619"/>
      <point x="474" y="668"/>
      <point x="474" y="668" type="curve"/>
    </contour>
  </outline>
</glyph>
<glyph name="endash" format="1">
  <advance width="657"/>
  <unicode hex="2013"/>
  <outline>
    <contour>
      <point x="604" y="308" type="line"/>
      <point x="53" y="308" type="line"/>
      <point x="53" y="243" type="line"/>
      <point x="604" y="243" type="line"/>
    </contour>
  </outline>
</glyph>
<glyph name="emdash" format="1">
  <advance width="787"/>
  <unicode hex="2014"/>
  <outline>
    <contour>
      <point x="734" y="308" type="line"/>
      <point x="53" y="308" type="line"/>
      <point x="53" y="243" type="line"/>
      <point x="734" y="243" type="line"/>
    </contour>
  </outline>
</glyph>
<glyph name="quoteleft" format="1">
  <advance width="214"/>
  <unicode hex="2018"/>
  <outline>
    <contour>
      <point x="156" y="592" type="curve" smooth="yes"/>
      <point x="156" y="624"/>
      <point x="132" y="648"/>
      <point x="96" y="648" type="curve"/>
      <point x="103" y="692"/>
      <point x="125" y="728"/>
      <point x="154" y="764" type="curve"/>
      <point x="108" y="789" type="line"/>
      <point x="66" y="737"/>
      <point x="40" y="674"/>
      <point x="39" y="619" type="curve" smooth="yes"/>
      <point x="39" y="573"/>
      <point x="57" y="537"/>
      <point x="100" y="537" type="curve" smooth="yes"/>
      <point x="132" y="537"/>
      <point x="156" y="560"/>
    </contour>
  </outline>
</glyph>
<glyph name="quoteright" format="1">
  <advance width="225"/>
  <unicode hex="2019"/>
  <outline>
    <contour>
      <point x="50" y="714" type="curve" smooth="yes"/>
      <point x="50" y="682"/>
      <point x="74" y="658"/>
      <point x="110" y="658" type="curve"/>
      <point x="103" y="614"/>
      <point x="81" y="578"/>
      <point x="52" y="542" type="curve"/>
      <point x="98" y="517" type="line"/>
      <point x="140" y="569"/>
      <point x="166" y="632"/>
      <point x="167" y="687" type="curve" smooth="yes"/>
      <point x="167" y="733"/>
      <point x="149" y="769"/>
      <point x="106" y="769" type="curve" smooth="yes"/>
      <point x="74" y="769"/>
      <point x="50" y="746"/>
    </contour>
  </outline>
</glyph>
<glyph name="quotedblleft" format="1">
  <advance width="384"/>
  <unicode hex="201C"/>
  <outline>
    <contour>
      <point x="163" y="592" type="curve" smooth="yes"/>
      <point x="163" y="624"/>
      <point x="139" y="648"/>
      <point x="103" y="648" type="curve"/>
      <point x="110" y="692"/>
      <point x="132" y="728"/>
      <point x="161" y="764" type="curve"/>
      <point x="115" y="789" type="line"/>
      <point x="73" y="737"/>
      <point x="47" y="674"/>
      <point x="46" y="619" type="curve" smooth="yes"/>
      <point x="46" y="573"/>
      <point x="64" y="537"/>
      <point x="107" y="537" type="curve" smooth="yes"/>
      <point x="139" y="537"/>
      <point x="163" y="560"/>
    </contour>
    <contour>
      <point x="334" y="592" type="curve" smooth="yes"/>
      <point x="334" y="624"/>
      <point x="310" y="648"/>
      <point x="274" y="648" type="curve"/>
      <point x="281" y="692"/>
      <point x="303" y="728"/>
      <point x="332" y="764" type="curve"/>
      <point x="286" y="789" type="line"/>
      <point x="244" y="737"/>
      <point x="218" y="674"/>
      <point x="217" y="619" type="curve" smooth="yes"/>
      <point x="217" y="573"/>
      <point x="235" y="537"/>
      <point x="278" y="537" type="curve" smooth="yes"/>
      <point x="310" y="537"/>
      <point x="334" y="560"/>
    </contour>
  </outline>
</glyph>
<glyph name="quotedblright" format="1">
  <advance width="384"/>
  <unicode hex="201D"/>
  <outline>
    <contour>
      <point x="219" y="714" type="curve" smooth="yes"/>
      <point x="219" y="682"/>
      <point x="243" y="658"/>
      <point x="279" y="658" type="curve"/>
      <point x="272" y="614"/>
      <point x="250" y="578"/>
      <point x="221" y="542" type="curve"/>
      <point x="267" y="517" type="line"/>
      <point x="309" y="569"/>
      <point x="335" y="632"/>
      <point x="336" y="687" type="curve" smooth="yes"/>
      <point x="336" y="733"/>
      <point x="318" y="769"/>
      <point x="275" y="769" type="curve" smooth="yes"/>
      <point x="243" y="769"/>
      <point x="219" y="746"/>
    </contour>
    <contour>
      <point x="48" y="714" type="curve" smooth="yes"/>
      <point x="48" y="682"/>
      <point x="72" y="658"/>
      <point x="108" y="658" type="curve"/>
      <point x="101" y="614"/>
      <point x="79" y="578"/>
      <point x="50" y="542" type="curve"/>
      <point x="96" y="517" type="line"/>
      <point x="138" y="569"/>
      <point x="164" y="632"/>
      <point x="165" y="687" type="curve" smooth="yes"/>
      <point x="165" y="733"/>
      <point x="147" y="769"/>
      <point x="104" y="769" type="curve" smooth="yes"/>
      <point x="72" y="769"/>
      <point x="48" y="746"/>
    </contour>
  </outline>
</glyph>
<glyph name="bullet" format="1">
  <advance width="416"/>
  <unicode hex="2022"/>
  <outline>
    <contour>
      <point x="93" y="238" type="curve" smooth="yes"/>
      <point x="93" y="171"/>
      <point x="143" y="121"/>
      <point x="210" y="121" type="curve" smooth="yes"/>
      <point x="275" y="121"/>
      <point x="323" y="171"/>
      <point x="323" y="238" type="curve" smooth="yes"/>
      <point x="323" y="303"/>
      <point x="275" y="351"/>
      <point x="210" y="351" type="curve" smooth="yes"/>
      <point x="143" y="351"/>
      <point x="93" y="303"/>
    </contour>
  </outline>
</glyph>
<glyph name="ellipsis" format="1">
  <advance width="609"/>
  <unicode hex="2026"/>
  <outline>
    <contour>
      <point x="44" y="56" type="curve" smooth="yes"/>
      <point x="44" y="20"/>
      <point x="71" y="-7"/>
      <point x="107" y="-7" type="curve" smooth="yes"/>
      <point x="142" y="-7"/>
      <point x="168" y="20"/>
      <point x="168" y="56" type="curve" smooth="yes"/>
      <point x="168" y="91"/>
      <point x="142" y="117"/>
      <point x="107" y="117" type="curve" smooth="yes"/>
      <point x="71" y="117"/>
      <point x="44" y="91"/>
    </contour>
    <contour>
      <point x="245" y="56" type="curve" smooth="yes"/>
      <point x="245" y="20"/>
      <point x="272" y="-7"/>
      <point x="308" y="-7" type="curve" smooth="yes"/>
      <point x="343" y="-7"/>
      <point x="369" y="20"/>
      <point x="369" y="56" type="curve" smooth="yes"/>
      <point x="369" y="91"/>
      <point x="343" y="117"/>
      <point x="308" y="117" type="curve" smooth="yes"/>
      <point x="272" y="117"/>
      <point x="245" y="91"/>
    </contour>
    <contour>
      <point x="446" y="56" type="curve" smooth="yes"/>
      <point x="446" y="20"/>
      <point x="473" y="-7"/>
      <point x="509" y="-7" type="curve" smooth="yes"/>
      <point x="544" y="-7"/>
      <point x="570" y="20"/>
      <point x="570" y="56" type="curve" smooth="yes"/>
      <point x="570" y="91"/>
      <point x="544" y="117"/>
      <point x="509" y="117" type="curve" smooth="yes"/>
      <point x="473" y="117"/>
      <point x="446" y="91"/>
    </contour>
  </outline>
</glyph>
<glyph name="trademark" format="1">
  <advance width="913"/>
  <unicode hex="2122"/>
  <outline>
    <contour>
      <point x="500" y="391" type="line"/>
      <point x="500" y="635" type="line"/>
      <point x="508" y="603" type="line"/>
      <point x="595" y="391" type="line"/>
      <point x="661" y="391" type="line"/>
      <point x="746" y="603" type="line"/>
      <point x="754" y="635" type="line"/>
      <point x="754" y="391" type="line"/>
      <point x="825" y="391" type="line"/>
      <point x="825" y="750" type="line"/>
      <point x="757" y="750" type="line"/>
      <point x="637" y="482" type="line"/>
      <point x="629" y="452" type="line"/>
      <point x="621" y="482" type="line"/>
      <point x="498" y="750" type="line"/>
      <point x="430" y="750" type="line"/>
      <point x="430" y="391" type="line"/>
    </contour>
    <contour>
      <point x="83" y="693" type="line"/>
      <point x="206" y="693" type="line"/>
      <point x="206" y="391" type="line"/>
      <point x="277" y="391" type="line"/>
      <point x="277" y="693" type="line"/>
      <point x="400" y="693" type="line"/>
      <point x="400" y="750" type="line"/>
      <point x="83" y="750" type="line"/>
    </contour>
  </outline>
</glyph>
<glyph name="minus" format="1">
  <advance width="656"/>
  <unicode hex="2212"/>
  <outline>
    <contour>
      <point x="603" y="309" type="line"/>
      <point x="53" y="309" type="line"/>
      <point x="53" y="242" type="line"/>
      <point x="603" y="242" type="line"/>
    </contour>
  </outline>
</glyph>
<glyph name="fi" format="1">
  <advance width="587"/>
  <unicode hex="FB01"/>
  <outline>
    <contour>
      <point x="187" y="646" type="line"/>
      <point x="188" y="707"/>
      <point x="200" y="755"/>
      <point x="267" y="755" type="curve" smooth="yes"/>
      <point x="333" y="755"/>
      <point x="434" y="685"/>
      <point x="434" y="685" type="curve"/>
      <point x="485" y="736" type="line"/>
      <point x="485" y="736"/>
      <point x="370" y="825"/>
      <point x="266" y="825" type="curve" smooth="yes"/>
      <point x="151" y="825"/>
      <point x="104" y="749"/>
      <point x="104" y="646" type="curve" smooth="yes"/>
      <point x="104" y="550" type="line"/>
      <point x="33" y="550" type="line"/>
      <point x="33" y="480" type="line"/>
      <point x="104" y="480" type="line"/>
      <point x="104" y="0" type="line"/>
      <point x="187" y="0" type="line"/>
      <point x="187" y="480" type="line"/>
      <point x="446" y="480" type="line"/>
      <point x="446" y="550" type="line"/>
      <point x="187" y="550" type="line"/>
    </contour>
    <contour>
      <point x="426" y="550" type="line"/>
      <point x="426" y="0" type="line"/>
      <point x="509" y="0" type="line"/>
      <point x="509" y="550" type="line"/>
    </contour>
  </outline>
</glyph>
<glyph name="_11" format="1">
  <advance width="609"/>
  <outline>
    <contour>
      <point x="276" y="96" type="curve" smooth="yes"/>
      <point x="337" y="96"/>
      <point x="410" y="125"/>
      <point x="478" y="226" type="curve"/>
      <point x="474" y="89"/>
      <point x="423" y="-138"/>
      <point x="264" y="-138" type="curve" smooth="yes"/>
      <point x="194" y="-138"/>
      <point x="147" y="-111"/>
      <point x="138" y="-106" type="curve"/>
      <point x="83" y="-159" type="line"/>
      <point x="105" y="-174"/>
      <point x="178" y="-215"/>
      <point x="265" y="-215" type="curve" smooth="yes"/>
      <point x="474" y="-215"/>
      <point x="559" y="47"/>
      <point x="559" y="215" type="curve" smooth="yes"/>
      <point x="559" y="449"/>
      <point x="465" y="577"/>
      <point x="300" y="577" type="curve" smooth="yes"/>
      <point x="120" y="577"/>
      <point x="63" y="417"/>
      <point x="63" y="323" type="curve" smooth="yes"/>
      <point x="63" y="155"/>
      <point x="163" y="96"/>
    </contour>
    <contour>
      <point x="276" y="170" type="curve" smooth="yes"/>
      <point x="207" y="170"/>
      <point x="147" y="209"/>
      <point x="147" y="323" type="curve" smooth="yes"/>
      <point x="147" y="389"/>
      <point x="184" y="503"/>
      <point x="300" y="503" type="curve" smooth="yes"/>
      <point x="386" y="503"/>
      <point x="444" y="444"/>
      <point x="467" y="334" type="curve"/>
      <point x="404" y="205"/>
      <point x="332" y="170"/>
    </contour>
  </outline>
</glyph>
<glyph name="_12" format="1">
  <advance width="593"/>
  <outline>
    <contour>
      <point x="47" y="283" type="curve" smooth="yes"/>
      <point x="47" y="58"/>
      <point x="175" y="-11"/>
      <point x="293" y="-11" type="curve" smooth="yes"/>
      <point x="411" y="-11"/>
      <point x="539" y="58"/>
      <point x="539" y="283" type="curve" smooth="yes"/>
      <point x="539" y="508"/>
      <point x="411" y="577"/>
      <point x="293" y="577" type="curve" smooth="yes"/>
      <point x="175" y="577"/>
      <point x="47" y="508"/>
    </contour>
    <contour>
      <point x="455" y="283" type="curve" smooth="yes"/>
      <point x="455" y="114"/>
      <point x="371" y="62"/>
      <point x="293" y="62" type="curve" smooth="yes"/>
      <point x="215" y="62"/>
      <point x="131" y="114"/>
      <point x="131" y="283" type="curve" smooth="yes"/>
      <point x="131" y="452"/>
      <point x="215" y="505"/>
      <point x="293" y="505" type="curve" smooth="yes"/>
      <point x="371" y="505"/>
      <point x="455" y="452"/>
    </contour>
  </outline>
</glyph>
<glyph name="_4" format="1">
  <advance width="348"/>
  <outline>
    <contour>
      <point x="277" y="0" type="line"/>
      <point x="277" y="565" type="line"/>
      <point x="196" y="565" type="line"/>
      <point x="53" y="457" type="line"/>
      <point x="107" y="405" type="line"/>
      <point x="196" y="480" type="line"/>
      <point x="196" y="0" type="line"/>
    </contour>
  </outline>
</glyph>
<glyph name="_5" format="1">
  <advance width="548"/>
  <outline>
    <contour>
      <point x="122" y="407" type="curve"/>
      <point x="122" y="407"/>
      <point x="174" y="496"/>
      <point x="268" y="497" type="curve" smooth="yes"/>
      <point x="327" y="498"/>
      <point x="370" y="468"/>
      <point x="370" y="394" type="curve" smooth="yes"/>
      <point x="370" y="279"/>
      <point x="53" y="64"/>
      <point x="53" y="64" type="curve"/>
      <point x="53" y="0" type="line"/>
      <point x="498" y="0" type="line"/>
      <point x="497" y="73" type="line"/>
      <point x="191" y="73" type="line"/>
      <point x="298" y="155"/>
      <point x="455" y="298"/>
      <point x="455" y="400" type="curve" smooth="yes"/>
      <point x="455" y="518"/>
      <point x="384" y="577"/>
      <point x="269" y="577" type="curve"/>
      <point x="166" y="576"/>
      <point x="90" y="490"/>
      <point x="71" y="456" type="curve"/>
      <point x="71" y="455"/>
      <point x="122" y="407"/>
    </contour>
  </outline>
</glyph>
<glyph name="_6" format="1">
  <advance width="540"/>
  <outline>
    <contour>
      <point x="113" y="426" type="line"/>
      <point x="113" y="426"/>
      <point x="151" y="496"/>
      <point x="243" y="496" type="curve" smooth="yes"/>
      <point x="289" y="496"/>
      <point x="330" y="464"/>
      <point x="330" y="415" type="curve" smooth="yes"/>
      <point x="330" y="332"/>
      <point x="246" y="283"/>
      <point x="155" y="246" type="curve"/>
      <point x="155" y="176" type="line"/>
      <point x="156" y="175"/>
      <point x="224" y="202"/>
      <point x="296" y="202" type="curve" smooth="yes"/>
      <point x="362" y="202"/>
      <point x="417" y="144"/>
      <point x="417" y="81" type="curve" smooth="yes"/>
      <point x="417" y="-70"/>
      <point x="295" y="-134"/>
      <point x="212" y="-134" type="curve"/>
      <point x="137" y="-137"/>
      <point x="96" y="-101"/>
      <point x="96" y="-101" type="curve"/>
      <point x="43" y="-153" type="line"/>
      <point x="43" y="-153"/>
      <point x="115" y="-216"/>
      <point x="212" y="-215" type="curve"/>
      <point x="331" y="-215"/>
      <point x="502" y="-122"/>
      <point x="502" y="81" type="curve"/>
      <point x="499" y="185"/>
      <point x="419" y="260"/>
      <point x="323" y="272" type="curve"/>
      <point x="370" y="307"/>
      <point x="412" y="354"/>
      <point x="412" y="415" type="curve" smooth="yes"/>
      <point x="412" y="512"/>
      <point x="334" y="577"/>
      <point x="242" y="577" type="curve" smooth="yes"/>
      <point x="119" y="577"/>
      <point x="66" y="472"/>
      <point x="66" y="472" type="curve"/>
    </contour>
  </outline>
</glyph>
<glyph name="_7" format="1">
  <advance width="642"/>
  <outline>
    <contour>
      <point x="601" y="73" type="line"/>
      <point x="488" y="73" type="line"/>
      <point x="488" y="565" type="line"/>
      <point x="435" y="565" type="line"/>
      <point x="43" y="44" type="line"/>
      <point x="43" y="0" type="line"/>
      <point x="407" y="0" type="line"/>
      <point x="407" y="-215" type="line"/>
      <point x="488" y="-215" type="line"/>
      <point x="488" y="0" type="line"/>
      <point x="601" y="0" type="line"/>
    </contour>
    <contour>
      <point x="172" y="73" type="line"/>
      <point x="153" y="69" type="line"/>
      <point x="153" y="70" type="line"/>
      <point x="167" y="84" type="line"/>
      <point x="407" y="409" type="line"/>
      <point x="407" y="73" type="line"/>
    </contour>
  </outline>
</glyph>
<glyph name="_8" format="1">
  <advance width="568"/>
  <outline>
    <contour>
      <point x="171" y="489" type="line"/>
      <point x="466" y="489" type="line"/>
      <point x="466" y="565" type="line"/>
      <point x="90" y="565" type="line"/>
      <point x="90" y="203" type="line"/>
      <point x="171" y="203" type="line"/>
      <point x="214" y="232"/>
      <point x="254" y="240"/>
      <point x="303" y="240" type="curve" smooth="yes"/>
      <point x="384" y="240"/>
      <point x="443" y="153"/>
      <point x="443" y="83" type="curve" smooth="yes"/>
      <point x="443" y="-69"/>
      <point x="325" y="-134"/>
      <point x="242" y="-134" type="curve" smooth="yes"/>
      <point x="160" y="-134"/>
      <point x="125" y="-96"/>
      <point x="125" y="-96" type="curve"/>
      <point x="73" y="-147" type="line"/>
      <point x="73" y="-147"/>
      <point x="128" y="-215"/>
      <point x="242" y="-215" type="curve" smooth="yes"/>
      <point x="361" y="-215"/>
      <point x="529" y="-119"/>
      <point x="529" y="83" type="curve"/>
      <point x="524" y="201"/>
      <point x="422" y="313"/>
      <point x="303" y="313" type="curve" smooth="yes"/>
      <point x="242" y="313"/>
      <point x="200" y="300"/>
      <point x="171" y="287" type="curve"/>
    </contour>
  </outline>
</glyph>
<glyph name="_9" format="1">
  <advance width="633"/>
  <outline>
    <contour>
      <point x="350" y="474" type="curve" smooth="yes"/>
      <point x="289" y="474"/>
      <point x="215" y="445"/>
      <point x="148" y="343" type="curve"/>
      <point x="151" y="478"/>
      <point x="203" y="708"/>
      <point x="360" y="708" type="curve" smooth="yes"/>
      <point x="428" y="708"/>
      <point x="477" y="667"/>
      <point x="477" y="667" type="curve"/>
      <point x="531" y="719" type="line"/>
      <point x="516" y="731"/>
      <point x="445" y="785"/>
      <point x="357" y="785" type="curve" smooth="yes"/>
      <point x="189" y="785"/>
      <point x="67" y="586"/>
      <point x="67" y="355" type="curve" smooth="yes"/>
      <point x="67" y="121"/>
      <point x="161" y="-7"/>
      <point x="326" y="-7" type="curve" smooth="yes"/>
      <point x="506" y="-7"/>
      <point x="563" y="153"/>
      <point x="563" y="247" type="curve" smooth="yes"/>
      <point x="563" y="415"/>
      <point x="463" y="474"/>
    </contour>
    <contour>
      <point x="326" y="67" type="curve" smooth="yes"/>
      <point x="240" y="67"/>
      <point x="182" y="126"/>
      <point x="159" y="235" type="curve"/>
      <point x="221" y="365"/>
      <point x="293" y="400"/>
      <point x="350" y="400" type="curve" smooth="yes"/>
      <point x="419" y="400"/>
      <point x="479" y="361"/>
      <point x="479" y="247" type="curve" smooth="yes"/>
      <point x="479" y="181"/>
      <point x="442" y="67"/>
    </contour>
  </outline>
</glyph>
